<?xml version="1.0" encoding="utf-8" standalone="no"?>
<!DOCTYPE svg PUBLIC "-//W3C//DTD SVG 1.1//EN"
  "http://www.w3.org/Graphics/SVG/1.1/DTD/svg11.dtd">
<!-- Created with matplotlib (https://matplotlib.org/) -->
<svg height="423.811125pt" version="1.1" viewBox="0 0 515.047031 423.811125" width="515.047031pt" xmlns="http://www.w3.org/2000/svg" xmlns:xlink="http://www.w3.org/1999/xlink">
 <defs>
  <style type="text/css">
*{stroke-linecap:butt;stroke-linejoin:round;}
  </style>
 </defs>
 <g id="figure_1">
  <g id="patch_1">
   <path d="M -0 423.811125 
L 515.047031 423.811125 
L 515.047031 0 
L -0 0 
z
" style="fill:#ffffff;"/>
  </g>
  <g id="axes_1">
   <g id="patch_2">
    <path d="M 72.62625 376.56 
L 240.02625 376.56 
L 240.02625 54.72 
L 72.62625 54.72 
z
" style="fill:#ffffff;"/>
   </g>
   <g id="patch_3">
    <path clip-path="url(#pdac93aeff1)" d="M 80.235341 376.56 
L 232.417159 376.56 
L 232.417159 286.115521 
L 80.235341 286.115521 
z
" style="fill:#2d2d3f;opacity:0.9;stroke:#ffffff;stroke-linejoin:miter;"/>
   </g>
   <g id="patch_4">
    <path clip-path="url(#pdac93aeff1)" d="M 80.235341 286.115521 
L 232.417159 286.115521 
L 232.417159 258.654185 
L 80.235341 258.654185 
z
" style="fill:#343448;opacity:0.9;stroke:#ffffff;stroke-linejoin:miter;"/>
   </g>
   <g id="patch_5">
    <path clip-path="url(#pdac93aeff1)" d="M 80.235341 258.654185 
L 232.417159 258.654185 
L 232.417159 232.329032 
L 80.235341 232.329032 
z
" style="fill:#3b3b52;opacity:0.9;stroke:#ffffff;stroke-linejoin:miter;"/>
   </g>
   <g id="patch_6">
    <path clip-path="url(#pdac93aeff1)" d="M 80.235341 232.329032 
L 232.417159 232.329032 
L 232.417159 208.040434 
L 80.235341 208.040434 
z
" style="fill:#41415b;opacity:0.9;stroke:#ffffff;stroke-linejoin:miter;"/>
   </g>
   <g id="patch_7">
    <path clip-path="url(#pdac93aeff1)" d="M 80.235341 208.040434 
L 232.417159 208.040434 
L 232.417159 185.145269 
L 80.235341 185.145269 
z
" style="fill:#484864;opacity:0.9;stroke:#ffffff;stroke-linejoin:miter;"/>
   </g>
   <g id="patch_8">
    <path clip-path="url(#pdac93aeff1)" d="M 80.235341 185.145269 
L 232.417159 185.145269 
L 232.417159 169.410202 
L 80.235341 169.410202 
z
" style="fill:#4f4f6e;opacity:0.9;stroke:#ffffff;stroke-linejoin:miter;"/>
   </g>
   <g id="patch_9">
    <path clip-path="url(#pdac93aeff1)" d="M 80.235341 169.410202 
L 232.417159 169.410202 
L 232.417159 158.069806 
L 80.235341 158.069806 
z
" style="fill:#565776;opacity:0.9;stroke:#ffffff;stroke-linejoin:miter;"/>
   </g>
   <g id="patch_10">
    <path clip-path="url(#pdac93aeff1)" d="M 80.235341 158.069806 
L 232.417159 158.069806 
L 232.417159 150.459522 
L 80.235341 150.459522 
z
" style="fill:#5c617c;opacity:0.9;stroke:#ffffff;stroke-linejoin:miter;"/>
   </g>
   <g id="patch_11">
    <path clip-path="url(#pdac93aeff1)" d="M 80.235341 150.459522 
L 232.417159 150.459522 
L 232.417159 143.57811 
L 80.235341 143.57811 
z
" style="fill:#636a83;opacity:0.9;stroke:#ffffff;stroke-linejoin:miter;"/>
   </g>
   <g id="patch_12">
    <path clip-path="url(#pdac93aeff1)" d="M 80.235341 143.57811 
L 232.417159 143.57811 
L 232.417159 137.33982 
L 80.235341 137.33982 
z
" style="fill:#6a738a;opacity:0.9;stroke:#ffffff;stroke-linejoin:miter;"/>
   </g>
   <g id="patch_13">
    <path clip-path="url(#pdac93aeff1)" d="M 80.235341 137.33982 
L 232.417159 137.33982 
L 232.417159 131.251593 
L 80.235341 131.251593 
z
" style="fill:#717c91;opacity:0.9;stroke:#ffffff;stroke-linejoin:miter;"/>
   </g>
   <g id="patch_14">
    <path clip-path="url(#pdac93aeff1)" d="M 80.235341 131.251593 
L 232.417159 131.251593 
L 232.417159 125.634988 
L 80.235341 125.634988 
z
" style="fill:#778697;opacity:0.9;stroke:#ffffff;stroke-linejoin:miter;"/>
   </g>
   <g id="patch_15">
    <path clip-path="url(#pdac93aeff1)" d="M 80.235341 125.634988 
L 232.417159 125.634988 
L 232.417159 120.232758 
L 80.235341 120.232758 
z
" style="fill:#7e8f9e;opacity:0.9;stroke:#ffffff;stroke-linejoin:miter;"/>
   </g>
   <g id="patch_16">
    <path clip-path="url(#pdac93aeff1)" d="M 80.235341 120.232758 
L 232.417159 120.232758 
L 232.417159 115.173527 
L 80.235341 115.173527 
z
" style="fill:#8598a5;opacity:0.9;stroke:#ffffff;stroke-linejoin:miter;"/>
   </g>
   <g id="patch_17">
    <path clip-path="url(#pdac93aeff1)" d="M 80.235341 115.173527 
L 232.417159 115.173527 
L 232.417159 111.07898 
L 80.235341 111.07898 
z
" style="fill:#8ca2ac;opacity:0.9;stroke:#ffffff;stroke-linejoin:miter;"/>
   </g>
   <g id="patch_18">
    <path clip-path="url(#pdac93aeff1)" d="M 80.235341 111.07898 
L 232.417159 111.07898 
L 232.417159 107.113057 
L 80.235341 107.113057 
z
" style="fill:#92abb2;opacity:0.9;stroke:#ffffff;stroke-linejoin:miter;"/>
   </g>
   <g id="patch_19">
    <path clip-path="url(#pdac93aeff1)" d="M 80.235341 107.113057 
L 232.417159 107.113057 
L 232.417159 103.533007 
L 80.235341 103.533007 
z
" style="fill:#99b4b9;opacity:0.9;stroke:#ffffff;stroke-linejoin:miter;"/>
   </g>
   <g id="patch_20">
    <path clip-path="url(#pdac93aeff1)" d="M 80.235341 103.533007 
L 232.417159 103.533007 
L 232.417159 100.124457 
L 80.235341 100.124457 
z
" style="fill:#a0bdc0;opacity:0.9;stroke:#ffffff;stroke-linejoin:miter;"/>
   </g>
   <g id="patch_21">
    <path clip-path="url(#pdac93aeff1)" d="M 80.235341 100.124457 
L 232.417159 100.124457 
L 232.417159 54.762875 
L 80.235341 54.762875 
z
" style="fill:#aac9c9;opacity:0.9;stroke:#ffffff;stroke-linejoin:miter;"/>
   </g>
   <g id="matplotlib.axis_1">
    <g id="text_1">
     <!-- *Identified items equal to less than 1% of the total. -->
     <defs>
      <path d="M 47.015625 60.890625 
L 29.5 51.421875 
L 47.015625 41.890625 
L 44.1875 37.109375 
L 27.78125 47.015625 
L 27.78125 28.609375 
L 22.21875 28.609375 
L 22.21875 47.015625 
L 5.8125 37.109375 
L 2.984375 41.890625 
L 20.515625 51.421875 
L 2.984375 60.890625 
L 5.8125 65.71875 
L 22.21875 55.8125 
L 22.21875 74.21875 
L 27.78125 74.21875 
L 27.78125 55.8125 
L 44.1875 65.71875 
z
" id="DejaVuSans-42"/>
      <path d="M 9.8125 72.90625 
L 19.671875 72.90625 
L 19.671875 0 
L 9.8125 0 
z
" id="DejaVuSans-73"/>
      <path d="M 45.40625 46.390625 
L 45.40625 75.984375 
L 54.390625 75.984375 
L 54.390625 0 
L 45.40625 0 
L 45.40625 8.203125 
Q 42.578125 3.328125 38.25 0.953125 
Q 33.9375 -1.421875 27.875 -1.421875 
Q 17.96875 -1.421875 11.734375 6.484375 
Q 5.515625 14.40625 5.515625 27.296875 
Q 5.515625 40.1875 11.734375 48.09375 
Q 17.96875 56 27.875 56 
Q 33.9375 56 38.25 53.625 
Q 42.578125 51.265625 45.40625 46.390625 
z
M 14.796875 27.296875 
Q 14.796875 17.390625 18.875 11.75 
Q 22.953125 6.109375 30.078125 6.109375 
Q 37.203125 6.109375 41.296875 11.75 
Q 45.40625 17.390625 45.40625 27.296875 
Q 45.40625 37.203125 41.296875 42.84375 
Q 37.203125 48.484375 30.078125 48.484375 
Q 22.953125 48.484375 18.875 42.84375 
Q 14.796875 37.203125 14.796875 27.296875 
z
" id="DejaVuSans-100"/>
      <path d="M 56.203125 29.59375 
L 56.203125 25.203125 
L 14.890625 25.203125 
Q 15.484375 15.921875 20.484375 11.0625 
Q 25.484375 6.203125 34.421875 6.203125 
Q 39.59375 6.203125 44.453125 7.46875 
Q 49.3125 8.734375 54.109375 11.28125 
L 54.109375 2.78125 
Q 49.265625 0.734375 44.1875 -0.34375 
Q 39.109375 -1.421875 33.890625 -1.421875 
Q 20.796875 -1.421875 13.15625 6.1875 
Q 5.515625 13.8125 5.515625 26.8125 
Q 5.515625 40.234375 12.765625 48.109375 
Q 20.015625 56 32.328125 56 
Q 43.359375 56 49.78125 48.890625 
Q 56.203125 41.796875 56.203125 29.59375 
z
M 47.21875 32.234375 
Q 47.125 39.59375 43.09375 43.984375 
Q 39.0625 48.390625 32.421875 48.390625 
Q 24.90625 48.390625 20.390625 44.140625 
Q 15.875 39.890625 15.1875 32.171875 
z
" id="DejaVuSans-101"/>
      <path d="M 54.890625 33.015625 
L 54.890625 0 
L 45.90625 0 
L 45.90625 32.71875 
Q 45.90625 40.484375 42.875 44.328125 
Q 39.84375 48.1875 33.796875 48.1875 
Q 26.515625 48.1875 22.3125 43.546875 
Q 18.109375 38.921875 18.109375 30.90625 
L 18.109375 0 
L 9.078125 0 
L 9.078125 54.6875 
L 18.109375 54.6875 
L 18.109375 46.1875 
Q 21.34375 51.125 25.703125 53.5625 
Q 30.078125 56 35.796875 56 
Q 45.21875 56 50.046875 50.171875 
Q 54.890625 44.34375 54.890625 33.015625 
z
" id="DejaVuSans-110"/>
      <path d="M 18.3125 70.21875 
L 18.3125 54.6875 
L 36.8125 54.6875 
L 36.8125 47.703125 
L 18.3125 47.703125 
L 18.3125 18.015625 
Q 18.3125 11.328125 20.140625 9.421875 
Q 21.96875 7.515625 27.59375 7.515625 
L 36.8125 7.515625 
L 36.8125 0 
L 27.59375 0 
Q 17.1875 0 13.234375 3.875 
Q 9.28125 7.765625 9.28125 18.015625 
L 9.28125 47.703125 
L 2.6875 47.703125 
L 2.6875 54.6875 
L 9.28125 54.6875 
L 9.28125 70.21875 
z
" id="DejaVuSans-116"/>
      <path d="M 9.421875 54.6875 
L 18.40625 54.6875 
L 18.40625 0 
L 9.421875 0 
z
M 9.421875 75.984375 
L 18.40625 75.984375 
L 18.40625 64.59375 
L 9.421875 64.59375 
z
" id="DejaVuSans-105"/>
      <path d="M 37.109375 75.984375 
L 37.109375 68.5 
L 28.515625 68.5 
Q 23.6875 68.5 21.796875 66.546875 
Q 19.921875 64.59375 19.921875 59.515625 
L 19.921875 54.6875 
L 34.71875 54.6875 
L 34.71875 47.703125 
L 19.921875 47.703125 
L 19.921875 0 
L 10.890625 0 
L 10.890625 47.703125 
L 2.296875 47.703125 
L 2.296875 54.6875 
L 10.890625 54.6875 
L 10.890625 58.5 
Q 10.890625 67.625 15.140625 71.796875 
Q 19.390625 75.984375 28.609375 75.984375 
z
" id="DejaVuSans-102"/>
      <path id="DejaVuSans-32"/>
      <path d="M 52 44.1875 
Q 55.375 50.25 60.0625 53.125 
Q 64.75 56 71.09375 56 
Q 79.640625 56 84.28125 50.015625 
Q 88.921875 44.046875 88.921875 33.015625 
L 88.921875 0 
L 79.890625 0 
L 79.890625 32.71875 
Q 79.890625 40.578125 77.09375 44.375 
Q 74.3125 48.1875 68.609375 48.1875 
Q 61.625 48.1875 57.5625 43.546875 
Q 53.515625 38.921875 53.515625 30.90625 
L 53.515625 0 
L 44.484375 0 
L 44.484375 32.71875 
Q 44.484375 40.625 41.703125 44.40625 
Q 38.921875 48.1875 33.109375 48.1875 
Q 26.21875 48.1875 22.15625 43.53125 
Q 18.109375 38.875 18.109375 30.90625 
L 18.109375 0 
L 9.078125 0 
L 9.078125 54.6875 
L 18.109375 54.6875 
L 18.109375 46.1875 
Q 21.1875 51.21875 25.484375 53.609375 
Q 29.78125 56 35.6875 56 
Q 41.65625 56 45.828125 52.96875 
Q 50 49.953125 52 44.1875 
z
" id="DejaVuSans-109"/>
      <path d="M 44.28125 53.078125 
L 44.28125 44.578125 
Q 40.484375 46.53125 36.375 47.5 
Q 32.28125 48.484375 27.875 48.484375 
Q 21.1875 48.484375 17.84375 46.4375 
Q 14.5 44.390625 14.5 40.28125 
Q 14.5 37.15625 16.890625 35.375 
Q 19.28125 33.59375 26.515625 31.984375 
L 29.59375 31.296875 
Q 39.15625 29.25 43.1875 25.515625 
Q 47.21875 21.78125 47.21875 15.09375 
Q 47.21875 7.46875 41.1875 3.015625 
Q 35.15625 -1.421875 24.609375 -1.421875 
Q 20.21875 -1.421875 15.453125 -0.5625 
Q 10.6875 0.296875 5.421875 2 
L 5.421875 11.28125 
Q 10.40625 8.6875 15.234375 7.390625 
Q 20.0625 6.109375 24.8125 6.109375 
Q 31.15625 6.109375 34.5625 8.28125 
Q 37.984375 10.453125 37.984375 14.40625 
Q 37.984375 18.0625 35.515625 20.015625 
Q 33.0625 21.96875 24.703125 23.78125 
L 21.578125 24.515625 
Q 13.234375 26.265625 9.515625 29.90625 
Q 5.8125 33.546875 5.8125 39.890625 
Q 5.8125 47.609375 11.28125 51.796875 
Q 16.75 56 26.8125 56 
Q 31.78125 56 36.171875 55.265625 
Q 40.578125 54.546875 44.28125 53.078125 
z
" id="DejaVuSans-115"/>
      <path d="M 14.796875 27.296875 
Q 14.796875 17.390625 18.875 11.75 
Q 22.953125 6.109375 30.078125 6.109375 
Q 37.203125 6.109375 41.296875 11.75 
Q 45.40625 17.390625 45.40625 27.296875 
Q 45.40625 37.203125 41.296875 42.84375 
Q 37.203125 48.484375 30.078125 48.484375 
Q 22.953125 48.484375 18.875 42.84375 
Q 14.796875 37.203125 14.796875 27.296875 
z
M 45.40625 8.203125 
Q 42.578125 3.328125 38.25 0.953125 
Q 33.9375 -1.421875 27.875 -1.421875 
Q 17.96875 -1.421875 11.734375 6.484375 
Q 5.515625 14.40625 5.515625 27.296875 
Q 5.515625 40.1875 11.734375 48.09375 
Q 17.96875 56 27.875 56 
Q 33.9375 56 38.25 53.625 
Q 42.578125 51.265625 45.40625 46.390625 
L 45.40625 54.6875 
L 54.390625 54.6875 
L 54.390625 -20.796875 
L 45.40625 -20.796875 
z
" id="DejaVuSans-113"/>
      <path d="M 8.5 21.578125 
L 8.5 54.6875 
L 17.484375 54.6875 
L 17.484375 21.921875 
Q 17.484375 14.15625 20.5 10.265625 
Q 23.53125 6.390625 29.59375 6.390625 
Q 36.859375 6.390625 41.078125 11.03125 
Q 45.3125 15.671875 45.3125 23.6875 
L 45.3125 54.6875 
L 54.296875 54.6875 
L 54.296875 0 
L 45.3125 0 
L 45.3125 8.40625 
Q 42.046875 3.421875 37.71875 1 
Q 33.40625 -1.421875 27.6875 -1.421875 
Q 18.265625 -1.421875 13.375 4.4375 
Q 8.5 10.296875 8.5 21.578125 
z
M 31.109375 56 
z
" id="DejaVuSans-117"/>
      <path d="M 34.28125 27.484375 
Q 23.390625 27.484375 19.1875 25 
Q 14.984375 22.515625 14.984375 16.5 
Q 14.984375 11.71875 18.140625 8.90625 
Q 21.296875 6.109375 26.703125 6.109375 
Q 34.1875 6.109375 38.703125 11.40625 
Q 43.21875 16.703125 43.21875 25.484375 
L 43.21875 27.484375 
z
M 52.203125 31.203125 
L 52.203125 0 
L 43.21875 0 
L 43.21875 8.296875 
Q 40.140625 3.328125 35.546875 0.953125 
Q 30.953125 -1.421875 24.3125 -1.421875 
Q 15.921875 -1.421875 10.953125 3.296875 
Q 6 8.015625 6 15.921875 
Q 6 25.140625 12.171875 29.828125 
Q 18.359375 34.515625 30.609375 34.515625 
L 43.21875 34.515625 
L 43.21875 35.40625 
Q 43.21875 41.609375 39.140625 45 
Q 35.0625 48.390625 27.6875 48.390625 
Q 23 48.390625 18.546875 47.265625 
Q 14.109375 46.140625 10.015625 43.890625 
L 10.015625 52.203125 
Q 14.9375 54.109375 19.578125 55.046875 
Q 24.21875 56 28.609375 56 
Q 40.484375 56 46.34375 49.84375 
Q 52.203125 43.703125 52.203125 31.203125 
z
" id="DejaVuSans-97"/>
      <path d="M 9.421875 75.984375 
L 18.40625 75.984375 
L 18.40625 0 
L 9.421875 0 
z
" id="DejaVuSans-108"/>
      <path d="M 30.609375 48.390625 
Q 23.390625 48.390625 19.1875 42.75 
Q 14.984375 37.109375 14.984375 27.296875 
Q 14.984375 17.484375 19.15625 11.84375 
Q 23.34375 6.203125 30.609375 6.203125 
Q 37.796875 6.203125 41.984375 11.859375 
Q 46.1875 17.53125 46.1875 27.296875 
Q 46.1875 37.015625 41.984375 42.703125 
Q 37.796875 48.390625 30.609375 48.390625 
z
M 30.609375 56 
Q 42.328125 56 49.015625 48.375 
Q 55.71875 40.765625 55.71875 27.296875 
Q 55.71875 13.875 49.015625 6.21875 
Q 42.328125 -1.421875 30.609375 -1.421875 
Q 18.84375 -1.421875 12.171875 6.21875 
Q 5.515625 13.875 5.515625 27.296875 
Q 5.515625 40.765625 12.171875 48.375 
Q 18.84375 56 30.609375 56 
z
" id="DejaVuSans-111"/>
      <path d="M 54.890625 33.015625 
L 54.890625 0 
L 45.90625 0 
L 45.90625 32.71875 
Q 45.90625 40.484375 42.875 44.328125 
Q 39.84375 48.1875 33.796875 48.1875 
Q 26.515625 48.1875 22.3125 43.546875 
Q 18.109375 38.921875 18.109375 30.90625 
L 18.109375 0 
L 9.078125 0 
L 9.078125 75.984375 
L 18.109375 75.984375 
L 18.109375 46.1875 
Q 21.34375 51.125 25.703125 53.5625 
Q 30.078125 56 35.796875 56 
Q 45.21875 56 50.046875 50.171875 
Q 54.890625 44.34375 54.890625 33.015625 
z
" id="DejaVuSans-104"/>
      <path d="M 12.40625 8.296875 
L 28.515625 8.296875 
L 28.515625 63.921875 
L 10.984375 60.40625 
L 10.984375 69.390625 
L 28.421875 72.90625 
L 38.28125 72.90625 
L 38.28125 8.296875 
L 54.390625 8.296875 
L 54.390625 0 
L 12.40625 0 
z
" id="DejaVuSans-49"/>
      <path d="M 72.703125 32.078125 
Q 68.453125 32.078125 66.03125 28.46875 
Q 63.625 24.859375 63.625 18.40625 
Q 63.625 12.0625 66.03125 8.421875 
Q 68.453125 4.78125 72.703125 4.78125 
Q 76.859375 4.78125 79.265625 8.421875 
Q 81.6875 12.0625 81.6875 18.40625 
Q 81.6875 24.8125 79.265625 28.4375 
Q 76.859375 32.078125 72.703125 32.078125 
z
M 72.703125 38.28125 
Q 80.421875 38.28125 84.953125 32.90625 
Q 89.5 27.546875 89.5 18.40625 
Q 89.5 9.28125 84.9375 3.921875 
Q 80.375 -1.421875 72.703125 -1.421875 
Q 64.890625 -1.421875 60.34375 3.921875 
Q 55.8125 9.28125 55.8125 18.40625 
Q 55.8125 27.59375 60.375 32.9375 
Q 64.9375 38.28125 72.703125 38.28125 
z
M 22.3125 68.015625 
Q 18.109375 68.015625 15.6875 64.375 
Q 13.28125 60.75 13.28125 54.390625 
Q 13.28125 47.953125 15.671875 44.328125 
Q 18.0625 40.71875 22.3125 40.71875 
Q 26.5625 40.71875 28.96875 44.328125 
Q 31.390625 47.953125 31.390625 54.390625 
Q 31.390625 60.6875 28.953125 64.34375 
Q 26.515625 68.015625 22.3125 68.015625 
z
M 66.40625 74.21875 
L 74.21875 74.21875 
L 28.609375 -1.421875 
L 20.796875 -1.421875 
z
M 22.3125 74.21875 
Q 30.03125 74.21875 34.609375 68.875 
Q 39.203125 63.53125 39.203125 54.390625 
Q 39.203125 45.171875 34.640625 39.84375 
Q 30.078125 34.515625 22.3125 34.515625 
Q 14.546875 34.515625 10.03125 39.859375 
Q 5.515625 45.21875 5.515625 54.390625 
Q 5.515625 63.484375 10.046875 68.84375 
Q 14.59375 74.21875 22.3125 74.21875 
z
" id="DejaVuSans-37"/>
      <path d="M 10.6875 12.40625 
L 21 12.40625 
L 21 0 
L 10.6875 0 
z
" id="DejaVuSans-46"/>
     </defs>
     <g transform="translate(72.62625 400.678125)scale(0.12 -0.12)">
      <use xlink:href="#DejaVuSans-42"/>
      <use x="50" xlink:href="#DejaVuSans-73"/>
      <use x="79.492188" xlink:href="#DejaVuSans-100"/>
      <use x="142.96875" xlink:href="#DejaVuSans-101"/>
      <use x="204.492188" xlink:href="#DejaVuSans-110"/>
      <use x="267.871094" xlink:href="#DejaVuSans-116"/>
      <use x="307.080078" xlink:href="#DejaVuSans-105"/>
      <use x="334.863281" xlink:href="#DejaVuSans-102"/>
      <use x="370.068359" xlink:href="#DejaVuSans-105"/>
      <use x="397.851562" xlink:href="#DejaVuSans-101"/>
      <use x="459.375" xlink:href="#DejaVuSans-100"/>
      <use x="522.851562" xlink:href="#DejaVuSans-32"/>
      <use x="554.638672" xlink:href="#DejaVuSans-105"/>
      <use x="582.421875" xlink:href="#DejaVuSans-116"/>
      <use x="621.630859" xlink:href="#DejaVuSans-101"/>
      <use x="683.154297" xlink:href="#DejaVuSans-109"/>
      <use x="780.566406" xlink:href="#DejaVuSans-115"/>
      <use x="832.666016" xlink:href="#DejaVuSans-32"/>
      <use x="864.453125" xlink:href="#DejaVuSans-101"/>
      <use x="925.976562" xlink:href="#DejaVuSans-113"/>
      <use x="989.453125" xlink:href="#DejaVuSans-117"/>
      <use x="1052.832031" xlink:href="#DejaVuSans-97"/>
      <use x="1114.111328" xlink:href="#DejaVuSans-108"/>
      <use x="1141.894531" xlink:href="#DejaVuSans-32"/>
      <use x="1173.681641" xlink:href="#DejaVuSans-116"/>
      <use x="1212.890625" xlink:href="#DejaVuSans-111"/>
      <use x="1274.072266" xlink:href="#DejaVuSans-32"/>
      <use x="1305.859375" xlink:href="#DejaVuSans-108"/>
      <use x="1333.642578" xlink:href="#DejaVuSans-101"/>
      <use x="1395.166016" xlink:href="#DejaVuSans-115"/>
      <use x="1447.265625" xlink:href="#DejaVuSans-115"/>
      <use x="1499.365234" xlink:href="#DejaVuSans-32"/>
      <use x="1531.152344" xlink:href="#DejaVuSans-116"/>
      <use x="1570.361328" xlink:href="#DejaVuSans-104"/>
      <use x="1633.740234" xlink:href="#DejaVuSans-97"/>
      <use x="1695.019531" xlink:href="#DejaVuSans-110"/>
      <use x="1758.398438" xlink:href="#DejaVuSans-32"/>
      <use x="1790.185547" xlink:href="#DejaVuSans-49"/>
      <use x="1853.808594" xlink:href="#DejaVuSans-37"/>
      <use x="1948.828125" xlink:href="#DejaVuSans-32"/>
      <use x="1980.615234" xlink:href="#DejaVuSans-111"/>
      <use x="2041.796875" xlink:href="#DejaVuSans-102"/>
      <use x="2077.001953" xlink:href="#DejaVuSans-32"/>
      <use x="2108.789062" xlink:href="#DejaVuSans-116"/>
      <use x="2147.998047" xlink:href="#DejaVuSans-104"/>
      <use x="2211.376953" xlink:href="#DejaVuSans-101"/>
      <use x="2272.900391" xlink:href="#DejaVuSans-32"/>
      <use x="2304.6875" xlink:href="#DejaVuSans-116"/>
      <use x="2343.896484" xlink:href="#DejaVuSans-111"/>
      <use x="2405.078125" xlink:href="#DejaVuSans-116"/>
      <use x="2444.287109" xlink:href="#DejaVuSans-97"/>
      <use x="2505.566406" xlink:href="#DejaVuSans-108"/>
      <use x="2533.349609" xlink:href="#DejaVuSans-46"/>
     </g>
     <!-- Caps and lids are plastic unless noted. -->
     <defs>
      <path d="M 64.40625 67.28125 
L 64.40625 56.890625 
Q 59.421875 61.53125 53.78125 63.8125 
Q 48.140625 66.109375 41.796875 66.109375 
Q 29.296875 66.109375 22.65625 58.46875 
Q 16.015625 50.828125 16.015625 36.375 
Q 16.015625 21.96875 22.65625 14.328125 
Q 29.296875 6.6875 41.796875 6.6875 
Q 48.140625 6.6875 53.78125 8.984375 
Q 59.421875 11.28125 64.40625 15.921875 
L 64.40625 5.609375 
Q 59.234375 2.09375 53.4375 0.328125 
Q 47.65625 -1.421875 41.21875 -1.421875 
Q 24.65625 -1.421875 15.125 8.703125 
Q 5.609375 18.84375 5.609375 36.375 
Q 5.609375 53.953125 15.125 64.078125 
Q 24.65625 74.21875 41.21875 74.21875 
Q 47.75 74.21875 53.53125 72.484375 
Q 59.328125 70.75 64.40625 67.28125 
z
" id="DejaVuSans-67"/>
      <path d="M 18.109375 8.203125 
L 18.109375 -20.796875 
L 9.078125 -20.796875 
L 9.078125 54.6875 
L 18.109375 54.6875 
L 18.109375 46.390625 
Q 20.953125 51.265625 25.265625 53.625 
Q 29.59375 56 35.59375 56 
Q 45.5625 56 51.78125 48.09375 
Q 58.015625 40.1875 58.015625 27.296875 
Q 58.015625 14.40625 51.78125 6.484375 
Q 45.5625 -1.421875 35.59375 -1.421875 
Q 29.59375 -1.421875 25.265625 0.953125 
Q 20.953125 3.328125 18.109375 8.203125 
z
M 48.6875 27.296875 
Q 48.6875 37.203125 44.609375 42.84375 
Q 40.53125 48.484375 33.40625 48.484375 
Q 26.265625 48.484375 22.1875 42.84375 
Q 18.109375 37.203125 18.109375 27.296875 
Q 18.109375 17.390625 22.1875 11.75 
Q 26.265625 6.109375 33.40625 6.109375 
Q 40.53125 6.109375 44.609375 11.75 
Q 48.6875 17.390625 48.6875 27.296875 
z
" id="DejaVuSans-112"/>
      <path d="M 41.109375 46.296875 
Q 39.59375 47.171875 37.8125 47.578125 
Q 36.03125 48 33.890625 48 
Q 26.265625 48 22.1875 43.046875 
Q 18.109375 38.09375 18.109375 28.8125 
L 18.109375 0 
L 9.078125 0 
L 9.078125 54.6875 
L 18.109375 54.6875 
L 18.109375 46.1875 
Q 20.953125 51.171875 25.484375 53.578125 
Q 30.03125 56 36.53125 56 
Q 37.453125 56 38.578125 55.875 
Q 39.703125 55.765625 41.0625 55.515625 
z
" id="DejaVuSans-114"/>
      <path d="M 48.78125 52.59375 
L 48.78125 44.1875 
Q 44.96875 46.296875 41.140625 47.34375 
Q 37.3125 48.390625 33.40625 48.390625 
Q 24.65625 48.390625 19.8125 42.84375 
Q 14.984375 37.3125 14.984375 27.296875 
Q 14.984375 17.28125 19.8125 11.734375 
Q 24.65625 6.203125 33.40625 6.203125 
Q 37.3125 6.203125 41.140625 7.25 
Q 44.96875 8.296875 48.78125 10.40625 
L 48.78125 2.09375 
Q 45.015625 0.34375 40.984375 -0.53125 
Q 36.96875 -1.421875 32.421875 -1.421875 
Q 20.0625 -1.421875 12.78125 6.34375 
Q 5.515625 14.109375 5.515625 27.296875 
Q 5.515625 40.671875 12.859375 48.328125 
Q 20.21875 56 33.015625 56 
Q 37.15625 56 41.109375 55.140625 
Q 45.0625 54.296875 48.78125 52.59375 
z
" id="DejaVuSans-99"/>
     </defs>
     <g transform="translate(72.62625 414.1155)scale(0.12 -0.12)">
      <use xlink:href="#DejaVuSans-67"/>
      <use x="69.824219" xlink:href="#DejaVuSans-97"/>
      <use x="131.103516" xlink:href="#DejaVuSans-112"/>
      <use x="194.580078" xlink:href="#DejaVuSans-115"/>
      <use x="246.679688" xlink:href="#DejaVuSans-32"/>
      <use x="278.466797" xlink:href="#DejaVuSans-97"/>
      <use x="339.746094" xlink:href="#DejaVuSans-110"/>
      <use x="403.125" xlink:href="#DejaVuSans-100"/>
      <use x="466.601562" xlink:href="#DejaVuSans-32"/>
      <use x="498.388672" xlink:href="#DejaVuSans-108"/>
      <use x="526.171875" xlink:href="#DejaVuSans-105"/>
      <use x="553.955078" xlink:href="#DejaVuSans-100"/>
      <use x="617.431641" xlink:href="#DejaVuSans-115"/>
      <use x="669.53125" xlink:href="#DejaVuSans-32"/>
      <use x="701.318359" xlink:href="#DejaVuSans-97"/>
      <use x="762.597656" xlink:href="#DejaVuSans-114"/>
      <use x="803.679688" xlink:href="#DejaVuSans-101"/>
      <use x="865.203125" xlink:href="#DejaVuSans-32"/>
      <use x="896.990234" xlink:href="#DejaVuSans-112"/>
      <use x="960.466797" xlink:href="#DejaVuSans-108"/>
      <use x="988.25" xlink:href="#DejaVuSans-97"/>
      <use x="1049.529297" xlink:href="#DejaVuSans-115"/>
      <use x="1101.628906" xlink:href="#DejaVuSans-116"/>
      <use x="1140.837891" xlink:href="#DejaVuSans-105"/>
      <use x="1168.621094" xlink:href="#DejaVuSans-99"/>
      <use x="1223.601562" xlink:href="#DejaVuSans-32"/>
      <use x="1255.388672" xlink:href="#DejaVuSans-117"/>
      <use x="1318.767578" xlink:href="#DejaVuSans-110"/>
      <use x="1382.146484" xlink:href="#DejaVuSans-108"/>
      <use x="1409.929688" xlink:href="#DejaVuSans-101"/>
      <use x="1471.453125" xlink:href="#DejaVuSans-115"/>
      <use x="1523.552734" xlink:href="#DejaVuSans-115"/>
      <use x="1575.652344" xlink:href="#DejaVuSans-32"/>
      <use x="1607.439453" xlink:href="#DejaVuSans-110"/>
      <use x="1670.818359" xlink:href="#DejaVuSans-111"/>
      <use x="1732" xlink:href="#DejaVuSans-116"/>
      <use x="1771.208984" xlink:href="#DejaVuSans-101"/>
      <use x="1832.732422" xlink:href="#DejaVuSans-100"/>
      <use x="1896.208984" xlink:href="#DejaVuSans-46"/>
     </g>
    </g>
   </g>
   <g id="matplotlib.axis_2">
    <g id="ytick_1">
     <g id="line2d_1">
      <defs>
       <path d="M 0 0 
L -3.5 0 
" id="md2954e91cd" style="stroke:#000000;stroke-width:0.8;"/>
      </defs>
      <g>
       <use style="stroke:#000000;stroke-width:0.8;" x="72.62625" xlink:href="#md2954e91cd" y="376.56"/>
      </g>
     </g>
     <g id="text_2">
      <!-- 0 -->
      <defs>
       <path d="M 31.78125 66.40625 
Q 24.171875 66.40625 20.328125 58.90625 
Q 16.5 51.421875 16.5 36.375 
Q 16.5 21.390625 20.328125 13.890625 
Q 24.171875 6.390625 31.78125 6.390625 
Q 39.453125 6.390625 43.28125 13.890625 
Q 47.125 21.390625 47.125 36.375 
Q 47.125 51.421875 43.28125 58.90625 
Q 39.453125 66.40625 31.78125 66.40625 
z
M 31.78125 74.21875 
Q 44.046875 74.21875 50.515625 64.515625 
Q 56.984375 54.828125 56.984375 36.375 
Q 56.984375 17.96875 50.515625 8.265625 
Q 44.046875 -1.421875 31.78125 -1.421875 
Q 19.53125 -1.421875 13.0625 8.265625 
Q 6.59375 17.96875 6.59375 36.375 
Q 6.59375 54.828125 13.0625 64.515625 
Q 19.53125 74.21875 31.78125 74.21875 
z
" id="DejaVuSans-48"/>
      </defs>
      <g transform="translate(59.26375 380.359219)scale(0.1 -0.1)">
       <use xlink:href="#DejaVuSans-48"/>
      </g>
     </g>
    </g>
    <g id="ytick_2">
     <g id="line2d_2">
      <g>
       <use style="stroke:#000000;stroke-width:0.8;" x="72.62625" xlink:href="#md2954e91cd" y="333.685158"/>
      </g>
     </g>
     <g id="text_3">
      <!-- 2000 -->
      <defs>
       <path d="M 19.1875 8.296875 
L 53.609375 8.296875 
L 53.609375 0 
L 7.328125 0 
L 7.328125 8.296875 
Q 12.9375 14.109375 22.625 23.890625 
Q 32.328125 33.6875 34.8125 36.53125 
Q 39.546875 41.84375 41.421875 45.53125 
Q 43.3125 49.21875 43.3125 52.78125 
Q 43.3125 58.59375 39.234375 62.25 
Q 35.15625 65.921875 28.609375 65.921875 
Q 23.96875 65.921875 18.8125 64.3125 
Q 13.671875 62.703125 7.8125 59.421875 
L 7.8125 69.390625 
Q 13.765625 71.78125 18.9375 73 
Q 24.125 74.21875 28.421875 74.21875 
Q 39.75 74.21875 46.484375 68.546875 
Q 53.21875 62.890625 53.21875 53.421875 
Q 53.21875 48.921875 51.53125 44.890625 
Q 49.859375 40.875 45.40625 35.40625 
Q 44.1875 33.984375 37.640625 27.21875 
Q 31.109375 20.453125 19.1875 8.296875 
z
" id="DejaVuSans-50"/>
      </defs>
      <g transform="translate(40.17625 337.484377)scale(0.1 -0.1)">
       <use xlink:href="#DejaVuSans-50"/>
       <use x="63.623047" xlink:href="#DejaVuSans-48"/>
       <use x="127.246094" xlink:href="#DejaVuSans-48"/>
       <use x="190.869141" xlink:href="#DejaVuSans-48"/>
      </g>
     </g>
    </g>
    <g id="ytick_3">
     <g id="line2d_3">
      <g>
       <use style="stroke:#000000;stroke-width:0.8;" x="72.62625" xlink:href="#md2954e91cd" y="290.810316"/>
      </g>
     </g>
     <g id="text_4">
      <!-- 4000 -->
      <defs>
       <path d="M 37.796875 64.3125 
L 12.890625 25.390625 
L 37.796875 25.390625 
z
M 35.203125 72.90625 
L 47.609375 72.90625 
L 47.609375 25.390625 
L 58.015625 25.390625 
L 58.015625 17.1875 
L 47.609375 17.1875 
L 47.609375 0 
L 37.796875 0 
L 37.796875 17.1875 
L 4.890625 17.1875 
L 4.890625 26.703125 
z
" id="DejaVuSans-52"/>
      </defs>
      <g transform="translate(40.17625 294.609535)scale(0.1 -0.1)">
       <use xlink:href="#DejaVuSans-52"/>
       <use x="63.623047" xlink:href="#DejaVuSans-48"/>
       <use x="127.246094" xlink:href="#DejaVuSans-48"/>
       <use x="190.869141" xlink:href="#DejaVuSans-48"/>
      </g>
     </g>
    </g>
    <g id="ytick_4">
     <g id="line2d_4">
      <g>
       <use style="stroke:#000000;stroke-width:0.8;" x="72.62625" xlink:href="#md2954e91cd" y="247.935475"/>
      </g>
     </g>
     <g id="text_5">
      <!-- 6000 -->
      <defs>
       <path d="M 33.015625 40.375 
Q 26.375 40.375 22.484375 35.828125 
Q 18.609375 31.296875 18.609375 23.390625 
Q 18.609375 15.53125 22.484375 10.953125 
Q 26.375 6.390625 33.015625 6.390625 
Q 39.65625 6.390625 43.53125 10.953125 
Q 47.40625 15.53125 47.40625 23.390625 
Q 47.40625 31.296875 43.53125 35.828125 
Q 39.65625 40.375 33.015625 40.375 
z
M 52.59375 71.296875 
L 52.59375 62.3125 
Q 48.875 64.0625 45.09375 64.984375 
Q 41.3125 65.921875 37.59375 65.921875 
Q 27.828125 65.921875 22.671875 59.328125 
Q 17.53125 52.734375 16.796875 39.40625 
Q 19.671875 43.65625 24.015625 45.921875 
Q 28.375 48.1875 33.59375 48.1875 
Q 44.578125 48.1875 50.953125 41.515625 
Q 57.328125 34.859375 57.328125 23.390625 
Q 57.328125 12.15625 50.6875 5.359375 
Q 44.046875 -1.421875 33.015625 -1.421875 
Q 20.359375 -1.421875 13.671875 8.265625 
Q 6.984375 17.96875 6.984375 36.375 
Q 6.984375 53.65625 15.1875 63.9375 
Q 23.390625 74.21875 37.203125 74.21875 
Q 40.921875 74.21875 44.703125 73.484375 
Q 48.484375 72.75 52.59375 71.296875 
z
" id="DejaVuSans-54"/>
      </defs>
      <g transform="translate(40.17625 251.734693)scale(0.1 -0.1)">
       <use xlink:href="#DejaVuSans-54"/>
       <use x="63.623047" xlink:href="#DejaVuSans-48"/>
       <use x="127.246094" xlink:href="#DejaVuSans-48"/>
       <use x="190.869141" xlink:href="#DejaVuSans-48"/>
      </g>
     </g>
    </g>
    <g id="ytick_5">
     <g id="line2d_5">
      <g>
       <use style="stroke:#000000;stroke-width:0.8;" x="72.62625" xlink:href="#md2954e91cd" y="205.060633"/>
      </g>
     </g>
     <g id="text_6">
      <!-- 8000 -->
      <defs>
       <path d="M 31.78125 34.625 
Q 24.75 34.625 20.71875 30.859375 
Q 16.703125 27.09375 16.703125 20.515625 
Q 16.703125 13.921875 20.71875 10.15625 
Q 24.75 6.390625 31.78125 6.390625 
Q 38.8125 6.390625 42.859375 10.171875 
Q 46.921875 13.96875 46.921875 20.515625 
Q 46.921875 27.09375 42.890625 30.859375 
Q 38.875 34.625 31.78125 34.625 
z
M 21.921875 38.8125 
Q 15.578125 40.375 12.03125 44.71875 
Q 8.5 49.078125 8.5 55.328125 
Q 8.5 64.0625 14.71875 69.140625 
Q 20.953125 74.21875 31.78125 74.21875 
Q 42.671875 74.21875 48.875 69.140625 
Q 55.078125 64.0625 55.078125 55.328125 
Q 55.078125 49.078125 51.53125 44.71875 
Q 48 40.375 41.703125 38.8125 
Q 48.828125 37.15625 52.796875 32.3125 
Q 56.78125 27.484375 56.78125 20.515625 
Q 56.78125 9.90625 50.3125 4.234375 
Q 43.84375 -1.421875 31.78125 -1.421875 
Q 19.734375 -1.421875 13.25 4.234375 
Q 6.78125 9.90625 6.78125 20.515625 
Q 6.78125 27.484375 10.78125 32.3125 
Q 14.796875 37.15625 21.921875 38.8125 
z
M 18.3125 54.390625 
Q 18.3125 48.734375 21.84375 45.5625 
Q 25.390625 42.390625 31.78125 42.390625 
Q 38.140625 42.390625 41.71875 45.5625 
Q 45.3125 48.734375 45.3125 54.390625 
Q 45.3125 60.0625 41.71875 63.234375 
Q 38.140625 66.40625 31.78125 66.40625 
Q 25.390625 66.40625 21.84375 63.234375 
Q 18.3125 60.0625 18.3125 54.390625 
z
" id="DejaVuSans-56"/>
      </defs>
      <g transform="translate(40.17625 208.859852)scale(0.1 -0.1)">
       <use xlink:href="#DejaVuSans-56"/>
       <use x="63.623047" xlink:href="#DejaVuSans-48"/>
       <use x="127.246094" xlink:href="#DejaVuSans-48"/>
       <use x="190.869141" xlink:href="#DejaVuSans-48"/>
      </g>
     </g>
    </g>
    <g id="ytick_6">
     <g id="line2d_6">
      <g>
       <use style="stroke:#000000;stroke-width:0.8;" x="72.62625" xlink:href="#md2954e91cd" y="162.185791"/>
      </g>
     </g>
     <g id="text_7">
      <!-- 10000 -->
      <g transform="translate(33.81375 165.98501)scale(0.1 -0.1)">
       <use xlink:href="#DejaVuSans-49"/>
       <use x="63.623047" xlink:href="#DejaVuSans-48"/>
       <use x="127.246094" xlink:href="#DejaVuSans-48"/>
       <use x="190.869141" xlink:href="#DejaVuSans-48"/>
       <use x="254.492188" xlink:href="#DejaVuSans-48"/>
      </g>
     </g>
    </g>
    <g id="ytick_7">
     <g id="line2d_7">
      <g>
       <use style="stroke:#000000;stroke-width:0.8;" x="72.62625" xlink:href="#md2954e91cd" y="119.310949"/>
      </g>
     </g>
     <g id="text_8">
      <!-- 12000 -->
      <g transform="translate(33.81375 123.110168)scale(0.1 -0.1)">
       <use xlink:href="#DejaVuSans-49"/>
       <use x="63.623047" xlink:href="#DejaVuSans-50"/>
       <use x="127.246094" xlink:href="#DejaVuSans-48"/>
       <use x="190.869141" xlink:href="#DejaVuSans-48"/>
       <use x="254.492188" xlink:href="#DejaVuSans-48"/>
      </g>
     </g>
    </g>
    <g id="ytick_8">
     <g id="line2d_8">
      <g>
       <use style="stroke:#000000;stroke-width:0.8;" x="72.62625" xlink:href="#md2954e91cd" y="76.436107"/>
      </g>
     </g>
     <g id="text_9">
      <!-- 14000 -->
      <g transform="translate(33.81375 80.235326)scale(0.1 -0.1)">
       <use xlink:href="#DejaVuSans-49"/>
       <use x="63.623047" xlink:href="#DejaVuSans-52"/>
       <use x="127.246094" xlink:href="#DejaVuSans-48"/>
       <use x="190.869141" xlink:href="#DejaVuSans-48"/>
       <use x="254.492188" xlink:href="#DejaVuSans-48"/>
      </g>
     </g>
    </g>
    <g id="text_10">
     <!-- Number of objects found -->
     <defs>
      <path d="M 9.8125 72.90625 
L 23.09375 72.90625 
L 55.421875 11.921875 
L 55.421875 72.90625 
L 64.984375 72.90625 
L 64.984375 0 
L 51.703125 0 
L 19.390625 60.984375 
L 19.390625 0 
L 9.8125 0 
z
" id="DejaVuSans-78"/>
      <path d="M 48.6875 27.296875 
Q 48.6875 37.203125 44.609375 42.84375 
Q 40.53125 48.484375 33.40625 48.484375 
Q 26.265625 48.484375 22.1875 42.84375 
Q 18.109375 37.203125 18.109375 27.296875 
Q 18.109375 17.390625 22.1875 11.75 
Q 26.265625 6.109375 33.40625 6.109375 
Q 40.53125 6.109375 44.609375 11.75 
Q 48.6875 17.390625 48.6875 27.296875 
z
M 18.109375 46.390625 
Q 20.953125 51.265625 25.265625 53.625 
Q 29.59375 56 35.59375 56 
Q 45.5625 56 51.78125 48.09375 
Q 58.015625 40.1875 58.015625 27.296875 
Q 58.015625 14.40625 51.78125 6.484375 
Q 45.5625 -1.421875 35.59375 -1.421875 
Q 29.59375 -1.421875 25.265625 0.953125 
Q 20.953125 3.328125 18.109375 8.203125 
L 18.109375 0 
L 9.078125 0 
L 9.078125 75.984375 
L 18.109375 75.984375 
z
" id="DejaVuSans-98"/>
      <path d="M 9.421875 54.6875 
L 18.40625 54.6875 
L 18.40625 -0.984375 
Q 18.40625 -11.421875 14.421875 -16.109375 
Q 10.453125 -20.796875 1.609375 -20.796875 
L -1.8125 -20.796875 
L -1.8125 -13.1875 
L 0.59375 -13.1875 
Q 5.71875 -13.1875 7.5625 -10.8125 
Q 9.421875 -8.453125 9.421875 -0.984375 
z
M 9.421875 75.984375 
L 18.40625 75.984375 
L 18.40625 64.59375 
L 9.421875 64.59375 
z
" id="DejaVuSans-106"/>
     </defs>
     <g transform="translate(16.318125 290.060625)rotate(-90)scale(0.12 -0.12)">
      <use xlink:href="#DejaVuSans-78"/>
      <use x="74.804688" xlink:href="#DejaVuSans-117"/>
      <use x="138.183594" xlink:href="#DejaVuSans-109"/>
      <use x="235.595703" xlink:href="#DejaVuSans-98"/>
      <use x="299.072266" xlink:href="#DejaVuSans-101"/>
      <use x="360.595703" xlink:href="#DejaVuSans-114"/>
      <use x="401.708984" xlink:href="#DejaVuSans-32"/>
      <use x="433.496094" xlink:href="#DejaVuSans-111"/>
      <use x="494.677734" xlink:href="#DejaVuSans-102"/>
      <use x="529.882812" xlink:href="#DejaVuSans-32"/>
      <use x="561.669922" xlink:href="#DejaVuSans-111"/>
      <use x="622.851562" xlink:href="#DejaVuSans-98"/>
      <use x="686.328125" xlink:href="#DejaVuSans-106"/>
      <use x="714.111328" xlink:href="#DejaVuSans-101"/>
      <use x="775.634766" xlink:href="#DejaVuSans-99"/>
      <use x="830.615234" xlink:href="#DejaVuSans-116"/>
      <use x="869.824219" xlink:href="#DejaVuSans-115"/>
      <use x="921.923828" xlink:href="#DejaVuSans-32"/>
      <use x="953.710938" xlink:href="#DejaVuSans-102"/>
      <use x="988.916016" xlink:href="#DejaVuSans-111"/>
      <use x="1050.097656" xlink:href="#DejaVuSans-117"/>
      <use x="1113.476562" xlink:href="#DejaVuSans-110"/>
      <use x="1176.855469" xlink:href="#DejaVuSans-100"/>
     </g>
    </g>
   </g>
   <g id="patch_22">
    <path d="M 72.62625 376.56 
L 72.62625 54.72 
" style="fill:none;stroke:#000000;stroke-linecap:square;stroke-linejoin:miter;stroke-width:0.8;"/>
   </g>
   <g id="patch_23">
    <path d="M 240.02625 376.56 
L 240.02625 54.72 
" style="fill:none;stroke:#000000;stroke-linecap:square;stroke-linejoin:miter;stroke-width:0.8;"/>
   </g>
   <g id="patch_24">
    <path d="M 72.62625 376.56 
L 240.02625 376.56 
" style="fill:none;stroke:#000000;stroke-linecap:square;stroke-linejoin:miter;stroke-width:0.8;"/>
   </g>
   <g id="patch_25">
    <path d="M 72.62625 54.72 
L 240.02625 54.72 
" style="fill:none;stroke:#000000;stroke-linecap:square;stroke-linejoin:miter;stroke-width:0.8;"/>
   </g>
   <g id="text_11">
    <!-- Lake Geneva, Nov-2016 - Nov-2017 -->
    <defs>
     <path d="M 9.8125 72.90625 
L 19.671875 72.90625 
L 19.671875 8.296875 
L 55.171875 8.296875 
L 55.171875 0 
L 9.8125 0 
z
" id="DejaVuSans-76"/>
     <path d="M 9.078125 75.984375 
L 18.109375 75.984375 
L 18.109375 31.109375 
L 44.921875 54.6875 
L 56.390625 54.6875 
L 27.390625 29.109375 
L 57.625 0 
L 45.90625 0 
L 18.109375 26.703125 
L 18.109375 0 
L 9.078125 0 
z
" id="DejaVuSans-107"/>
     <path d="M 59.515625 10.40625 
L 59.515625 29.984375 
L 43.40625 29.984375 
L 43.40625 38.09375 
L 69.28125 38.09375 
L 69.28125 6.78125 
Q 63.578125 2.734375 56.6875 0.65625 
Q 49.8125 -1.421875 42 -1.421875 
Q 24.90625 -1.421875 15.25 8.5625 
Q 5.609375 18.5625 5.609375 36.375 
Q 5.609375 54.25 15.25 64.234375 
Q 24.90625 74.21875 42 74.21875 
Q 49.125 74.21875 55.546875 72.453125 
Q 61.96875 70.703125 67.390625 67.28125 
L 67.390625 56.78125 
Q 61.921875 61.421875 55.765625 63.765625 
Q 49.609375 66.109375 42.828125 66.109375 
Q 29.4375 66.109375 22.71875 58.640625 
Q 16.015625 51.171875 16.015625 36.375 
Q 16.015625 21.625 22.71875 14.15625 
Q 29.4375 6.6875 42.828125 6.6875 
Q 48.046875 6.6875 52.140625 7.59375 
Q 56.25 8.5 59.515625 10.40625 
z
" id="DejaVuSans-71"/>
     <path d="M 2.984375 54.6875 
L 12.5 54.6875 
L 29.59375 8.796875 
L 46.6875 54.6875 
L 56.203125 54.6875 
L 35.6875 0 
L 23.484375 0 
z
" id="DejaVuSans-118"/>
     <path d="M 11.71875 12.40625 
L 22.015625 12.40625 
L 22.015625 4 
L 14.015625 -11.625 
L 7.71875 -11.625 
L 11.71875 4 
z
" id="DejaVuSans-44"/>
     <path d="M 4.890625 31.390625 
L 31.203125 31.390625 
L 31.203125 23.390625 
L 4.890625 23.390625 
z
" id="DejaVuSans-45"/>
     <path d="M 8.203125 72.90625 
L 55.078125 72.90625 
L 55.078125 68.703125 
L 28.609375 0 
L 18.3125 0 
L 43.21875 64.59375 
L 8.203125 64.59375 
z
" id="DejaVuSans-55"/>
    </defs>
    <g transform="translate(72.62625 39.72)scale(0.12 -0.12)">
     <use xlink:href="#DejaVuSans-76"/>
     <use x="55.712891" xlink:href="#DejaVuSans-97"/>
     <use x="116.992188" xlink:href="#DejaVuSans-107"/>
     <use x="174.855469" xlink:href="#DejaVuSans-101"/>
     <use x="236.378906" xlink:href="#DejaVuSans-32"/>
     <use x="268.166016" xlink:href="#DejaVuSans-71"/>
     <use x="345.65625" xlink:href="#DejaVuSans-101"/>
     <use x="407.179688" xlink:href="#DejaVuSans-110"/>
     <use x="470.558594" xlink:href="#DejaVuSans-101"/>
     <use x="532.082031" xlink:href="#DejaVuSans-118"/>
     <use x="591.261719" xlink:href="#DejaVuSans-97"/>
     <use x="652.541016" xlink:href="#DejaVuSans-44"/>
     <use x="684.328125" xlink:href="#DejaVuSans-32"/>
     <use x="716.115234" xlink:href="#DejaVuSans-78"/>
     <use x="790.919922" xlink:href="#DejaVuSans-111"/>
     <use x="852.101562" xlink:href="#DejaVuSans-118"/>
     <use x="911.25" xlink:href="#DejaVuSans-45"/>
     <use x="947.333984" xlink:href="#DejaVuSans-50"/>
     <use x="1010.957031" xlink:href="#DejaVuSans-48"/>
     <use x="1074.580078" xlink:href="#DejaVuSans-49"/>
     <use x="1138.203125" xlink:href="#DejaVuSans-54"/>
     <use x="1201.826172" xlink:href="#DejaVuSans-32"/>
     <use x="1233.613281" xlink:href="#DejaVuSans-45"/>
     <use x="1269.697266" xlink:href="#DejaVuSans-32"/>
     <use x="1301.484375" xlink:href="#DejaVuSans-78"/>
     <use x="1376.289062" xlink:href="#DejaVuSans-111"/>
     <use x="1437.470703" xlink:href="#DejaVuSans-118"/>
     <use x="1496.619141" xlink:href="#DejaVuSans-45"/>
     <use x="1532.703125" xlink:href="#DejaVuSans-50"/>
     <use x="1596.326172" xlink:href="#DejaVuSans-48"/>
     <use x="1659.949219" xlink:href="#DejaVuSans-49"/>
     <use x="1723.572266" xlink:href="#DejaVuSans-55"/>
    </g>
   </g>
   <g id="legend_1">
    <g id="patch_26">
     <path d="M 247.72625 382.905388 
L 505.647031 382.905388 
Q 507.847031 382.905388 507.847031 380.705388 
L 507.847031 55.9832 
Q 507.847031 53.7832 505.647031 53.7832 
L 247.72625 53.7832 
Q 245.52625 53.7832 245.52625 55.9832 
L 245.52625 380.705388 
Q 245.52625 382.905388 247.72625 382.905388 
z
" style="fill:#ffffff;opacity:0.8;stroke:#cccccc;stroke-linejoin:miter;"/>
    </g>
    <g id="text_12">
     <!-- Object description: quantity -->
     <defs>
      <path d="M 39.40625 66.21875 
Q 28.65625 66.21875 22.328125 58.203125 
Q 16.015625 50.203125 16.015625 36.375 
Q 16.015625 22.609375 22.328125 14.59375 
Q 28.65625 6.59375 39.40625 6.59375 
Q 50.140625 6.59375 56.421875 14.59375 
Q 62.703125 22.609375 62.703125 36.375 
Q 62.703125 50.203125 56.421875 58.203125 
Q 50.140625 66.21875 39.40625 66.21875 
z
M 39.40625 74.21875 
Q 54.734375 74.21875 63.90625 63.9375 
Q 73.09375 53.65625 73.09375 36.375 
Q 73.09375 19.140625 63.90625 8.859375 
Q 54.734375 -1.421875 39.40625 -1.421875 
Q 24.03125 -1.421875 14.8125 8.828125 
Q 5.609375 19.09375 5.609375 36.375 
Q 5.609375 53.65625 14.8125 63.9375 
Q 24.03125 74.21875 39.40625 74.21875 
z
" id="DejaVuSans-79"/>
      <path d="M 11.71875 12.40625 
L 22.015625 12.40625 
L 22.015625 0 
L 11.71875 0 
z
M 11.71875 51.703125 
L 22.015625 51.703125 
L 22.015625 39.3125 
L 11.71875 39.3125 
z
" id="DejaVuSans-58"/>
      <path d="M 32.171875 -5.078125 
Q 28.375 -14.84375 24.75 -17.8125 
Q 21.140625 -20.796875 15.09375 -20.796875 
L 7.90625 -20.796875 
L 7.90625 -13.28125 
L 13.1875 -13.28125 
Q 16.890625 -13.28125 18.9375 -11.515625 
Q 21 -9.765625 23.484375 -3.21875 
L 25.09375 0.875 
L 2.984375 54.6875 
L 12.5 54.6875 
L 29.59375 11.921875 
L 46.6875 54.6875 
L 56.203125 54.6875 
z
" id="DejaVuSans-121"/>
     </defs>
     <g transform="translate(249.92625 68.821012)scale(0.14 -0.14)">
      <use xlink:href="#DejaVuSans-79"/>
      <use x="78.710938" xlink:href="#DejaVuSans-98"/>
      <use x="142.1875" xlink:href="#DejaVuSans-106"/>
      <use x="169.970703" xlink:href="#DejaVuSans-101"/>
      <use x="231.494141" xlink:href="#DejaVuSans-99"/>
      <use x="286.474609" xlink:href="#DejaVuSans-116"/>
      <use x="325.683594" xlink:href="#DejaVuSans-32"/>
      <use x="357.470703" xlink:href="#DejaVuSans-100"/>
      <use x="420.947266" xlink:href="#DejaVuSans-101"/>
      <use x="482.470703" xlink:href="#DejaVuSans-115"/>
      <use x="534.570312" xlink:href="#DejaVuSans-99"/>
      <use x="589.550781" xlink:href="#DejaVuSans-114"/>
      <use x="630.664062" xlink:href="#DejaVuSans-105"/>
      <use x="658.447266" xlink:href="#DejaVuSans-112"/>
      <use x="721.923828" xlink:href="#DejaVuSans-116"/>
      <use x="761.132812" xlink:href="#DejaVuSans-105"/>
      <use x="788.916016" xlink:href="#DejaVuSans-111"/>
      <use x="850.097656" xlink:href="#DejaVuSans-110"/>
      <use x="913.476562" xlink:href="#DejaVuSans-58"/>
      <use x="947.167969" xlink:href="#DejaVuSans-32"/>
      <use x="978.955078" xlink:href="#DejaVuSans-113"/>
      <use x="1042.431641" xlink:href="#DejaVuSans-117"/>
      <use x="1105.810547" xlink:href="#DejaVuSans-97"/>
      <use x="1167.089844" xlink:href="#DejaVuSans-110"/>
      <use x="1230.46875" xlink:href="#DejaVuSans-116"/>
      <use x="1269.677734" xlink:href="#DejaVuSans-105"/>
      <use x="1297.460938" xlink:href="#DejaVuSans-116"/>
      <use x="1336.669922" xlink:href="#DejaVuSans-121"/>
     </g>
    </g>
    <g id="patch_27">
     <path d="M 249.92625 85.590856 
L 271.92625 85.590856 
L 271.92625 77.890856 
L 249.92625 77.890856 
z
" style="fill:#aac9c9;opacity:0.9;stroke:#ffffff;stroke-linejoin:miter;"/>
    </g>
    <g id="text_13">
     <!-- *All other objects: 2,116 -->
     <defs>
      <path d="M 34.1875 63.1875 
L 20.796875 26.90625 
L 47.609375 26.90625 
z
M 28.609375 72.90625 
L 39.796875 72.90625 
L 67.578125 0 
L 57.328125 0 
L 50.6875 18.703125 
L 17.828125 18.703125 
L 11.1875 0 
L 0.78125 0 
z
" id="DejaVuSans-65"/>
     </defs>
     <g transform="translate(280.72625 85.590856)scale(0.11 -0.11)">
      <use xlink:href="#DejaVuSans-42"/>
      <use x="50" xlink:href="#DejaVuSans-65"/>
      <use x="118.408203" xlink:href="#DejaVuSans-108"/>
      <use x="146.191406" xlink:href="#DejaVuSans-108"/>
      <use x="173.974609" xlink:href="#DejaVuSans-32"/>
      <use x="205.761719" xlink:href="#DejaVuSans-111"/>
      <use x="266.943359" xlink:href="#DejaVuSans-116"/>
      <use x="306.152344" xlink:href="#DejaVuSans-104"/>
      <use x="369.53125" xlink:href="#DejaVuSans-101"/>
      <use x="431.054688" xlink:href="#DejaVuSans-114"/>
      <use x="472.167969" xlink:href="#DejaVuSans-32"/>
      <use x="503.955078" xlink:href="#DejaVuSans-111"/>
      <use x="565.136719" xlink:href="#DejaVuSans-98"/>
      <use x="628.613281" xlink:href="#DejaVuSans-106"/>
      <use x="656.396484" xlink:href="#DejaVuSans-101"/>
      <use x="717.919922" xlink:href="#DejaVuSans-99"/>
      <use x="772.900391" xlink:href="#DejaVuSans-116"/>
      <use x="812.109375" xlink:href="#DejaVuSans-115"/>
      <use x="864.208984" xlink:href="#DejaVuSans-58"/>
      <use x="897.900391" xlink:href="#DejaVuSans-32"/>
      <use x="929.6875" xlink:href="#DejaVuSans-50"/>
      <use x="993.310547" xlink:href="#DejaVuSans-44"/>
      <use x="1025.097656" xlink:href="#DejaVuSans-49"/>
      <use x="1088.720703" xlink:href="#DejaVuSans-49"/>
      <use x="1152.34375" xlink:href="#DejaVuSans-54"/>
     </g>
    </g>
    <g id="patch_28">
     <path d="M 249.92625 101.736794 
L 271.92625 101.736794 
L 271.92625 94.036794 
L 249.92625 94.036794 
z
" style="fill:#a0bdc0;opacity:0.9;stroke:#ffffff;stroke-linejoin:miter;"/>
    </g>
    <g id="text_14">
     <!-- Straws and stirrers: 159 -->
     <defs>
      <path d="M 53.515625 70.515625 
L 53.515625 60.890625 
Q 47.90625 63.578125 42.921875 64.890625 
Q 37.9375 66.21875 33.296875 66.21875 
Q 25.25 66.21875 20.875 63.09375 
Q 16.5 59.96875 16.5 54.203125 
Q 16.5 49.359375 19.40625 46.890625 
Q 22.3125 44.4375 30.421875 42.921875 
L 36.375 41.703125 
Q 47.40625 39.59375 52.65625 34.296875 
Q 57.90625 29 57.90625 20.125 
Q 57.90625 9.515625 50.796875 4.046875 
Q 43.703125 -1.421875 29.984375 -1.421875 
Q 24.8125 -1.421875 18.96875 -0.25 
Q 13.140625 0.921875 6.890625 3.21875 
L 6.890625 13.375 
Q 12.890625 10.015625 18.65625 8.296875 
Q 24.421875 6.59375 29.984375 6.59375 
Q 38.421875 6.59375 43.015625 9.90625 
Q 47.609375 13.234375 47.609375 19.390625 
Q 47.609375 24.75 44.3125 27.78125 
Q 41.015625 30.8125 33.5 32.328125 
L 27.484375 33.5 
Q 16.453125 35.6875 11.515625 40.375 
Q 6.59375 45.0625 6.59375 53.421875 
Q 6.59375 63.09375 13.40625 68.65625 
Q 20.21875 74.21875 32.171875 74.21875 
Q 37.3125 74.21875 42.625 73.28125 
Q 47.953125 72.359375 53.515625 70.515625 
z
" id="DejaVuSans-83"/>
      <path d="M 4.203125 54.6875 
L 13.1875 54.6875 
L 24.421875 12.015625 
L 35.59375 54.6875 
L 46.1875 54.6875 
L 57.421875 12.015625 
L 68.609375 54.6875 
L 77.59375 54.6875 
L 63.28125 0 
L 52.6875 0 
L 40.921875 44.828125 
L 29.109375 0 
L 18.5 0 
z
" id="DejaVuSans-119"/>
      <path d="M 10.796875 72.90625 
L 49.515625 72.90625 
L 49.515625 64.59375 
L 19.828125 64.59375 
L 19.828125 46.734375 
Q 21.96875 47.46875 24.109375 47.828125 
Q 26.265625 48.1875 28.421875 48.1875 
Q 40.625 48.1875 47.75 41.5 
Q 54.890625 34.8125 54.890625 23.390625 
Q 54.890625 11.625 47.5625 5.09375 
Q 40.234375 -1.421875 26.90625 -1.421875 
Q 22.3125 -1.421875 17.546875 -0.640625 
Q 12.796875 0.140625 7.71875 1.703125 
L 7.71875 11.625 
Q 12.109375 9.234375 16.796875 8.0625 
Q 21.484375 6.890625 26.703125 6.890625 
Q 35.15625 6.890625 40.078125 11.328125 
Q 45.015625 15.765625 45.015625 23.390625 
Q 45.015625 31 40.078125 35.4375 
Q 35.15625 39.890625 26.703125 39.890625 
Q 22.75 39.890625 18.8125 39.015625 
Q 14.890625 38.140625 10.796875 36.28125 
z
" id="DejaVuSans-53"/>
      <path d="M 10.984375 1.515625 
L 10.984375 10.5 
Q 14.703125 8.734375 18.5 7.8125 
Q 22.3125 6.890625 25.984375 6.890625 
Q 35.75 6.890625 40.890625 13.453125 
Q 46.046875 20.015625 46.78125 33.40625 
Q 43.953125 29.203125 39.59375 26.953125 
Q 35.25 24.703125 29.984375 24.703125 
Q 19.046875 24.703125 12.671875 31.3125 
Q 6.296875 37.9375 6.296875 49.421875 
Q 6.296875 60.640625 12.9375 67.421875 
Q 19.578125 74.21875 30.609375 74.21875 
Q 43.265625 74.21875 49.921875 64.515625 
Q 56.59375 54.828125 56.59375 36.375 
Q 56.59375 19.140625 48.40625 8.859375 
Q 40.234375 -1.421875 26.421875 -1.421875 
Q 22.703125 -1.421875 18.890625 -0.6875 
Q 15.09375 0.046875 10.984375 1.515625 
z
M 30.609375 32.421875 
Q 37.25 32.421875 41.125 36.953125 
Q 45.015625 41.5 45.015625 49.421875 
Q 45.015625 57.28125 41.125 61.84375 
Q 37.25 66.40625 30.609375 66.40625 
Q 23.96875 66.40625 20.09375 61.84375 
Q 16.21875 57.28125 16.21875 49.421875 
Q 16.21875 41.5 20.09375 36.953125 
Q 23.96875 32.421875 30.609375 32.421875 
z
" id="DejaVuSans-57"/>
     </defs>
     <g transform="translate(280.72625 101.736794)scale(0.11 -0.11)">
      <use xlink:href="#DejaVuSans-83"/>
      <use x="63.476562" xlink:href="#DejaVuSans-116"/>
      <use x="102.685547" xlink:href="#DejaVuSans-114"/>
      <use x="143.798828" xlink:href="#DejaVuSans-97"/>
      <use x="205.078125" xlink:href="#DejaVuSans-119"/>
      <use x="286.865234" xlink:href="#DejaVuSans-115"/>
      <use x="338.964844" xlink:href="#DejaVuSans-32"/>
      <use x="370.751953" xlink:href="#DejaVuSans-97"/>
      <use x="432.03125" xlink:href="#DejaVuSans-110"/>
      <use x="495.410156" xlink:href="#DejaVuSans-100"/>
      <use x="558.886719" xlink:href="#DejaVuSans-32"/>
      <use x="590.673828" xlink:href="#DejaVuSans-115"/>
      <use x="642.773438" xlink:href="#DejaVuSans-116"/>
      <use x="681.982422" xlink:href="#DejaVuSans-105"/>
      <use x="709.765625" xlink:href="#DejaVuSans-114"/>
      <use x="750.863281" xlink:href="#DejaVuSans-114"/>
      <use x="791.945312" xlink:href="#DejaVuSans-101"/>
      <use x="853.46875" xlink:href="#DejaVuSans-114"/>
      <use x="894.582031" xlink:href="#DejaVuSans-115"/>
      <use x="946.681641" xlink:href="#DejaVuSans-58"/>
      <use x="980.373047" xlink:href="#DejaVuSans-32"/>
      <use x="1012.160156" xlink:href="#DejaVuSans-49"/>
      <use x="1075.783203" xlink:href="#DejaVuSans-53"/>
      <use x="1139.40625" xlink:href="#DejaVuSans-57"/>
     </g>
    </g>
    <g id="patch_29">
     <path d="M 249.92625 117.882731 
L 271.92625 117.882731 
L 271.92625 110.182731 
L 249.92625 110.182731 
z
" style="fill:#99b4b9;opacity:0.9;stroke:#ffffff;stroke-linejoin:miter;"/>
    </g>
    <g id="text_15">
     <!-- Plastic rings from lids: 167 -->
     <defs>
      <path d="M 19.671875 64.796875 
L 19.671875 37.40625 
L 32.078125 37.40625 
Q 38.96875 37.40625 42.71875 40.96875 
Q 46.484375 44.53125 46.484375 51.125 
Q 46.484375 57.671875 42.71875 61.234375 
Q 38.96875 64.796875 32.078125 64.796875 
z
M 9.8125 72.90625 
L 32.078125 72.90625 
Q 44.34375 72.90625 50.609375 67.359375 
Q 56.890625 61.8125 56.890625 51.125 
Q 56.890625 40.328125 50.609375 34.8125 
Q 44.34375 29.296875 32.078125 29.296875 
L 19.671875 29.296875 
L 19.671875 0 
L 9.8125 0 
z
" id="DejaVuSans-80"/>
      <path d="M 45.40625 27.984375 
Q 45.40625 37.75 41.375 43.109375 
Q 37.359375 48.484375 30.078125 48.484375 
Q 22.859375 48.484375 18.828125 43.109375 
Q 14.796875 37.75 14.796875 27.984375 
Q 14.796875 18.265625 18.828125 12.890625 
Q 22.859375 7.515625 30.078125 7.515625 
Q 37.359375 7.515625 41.375 12.890625 
Q 45.40625 18.265625 45.40625 27.984375 
z
M 54.390625 6.78125 
Q 54.390625 -7.171875 48.1875 -13.984375 
Q 42 -20.796875 29.203125 -20.796875 
Q 24.46875 -20.796875 20.265625 -20.09375 
Q 16.0625 -19.390625 12.109375 -17.921875 
L 12.109375 -9.1875 
Q 16.0625 -11.328125 19.921875 -12.34375 
Q 23.78125 -13.375 27.78125 -13.375 
Q 36.625 -13.375 41.015625 -8.765625 
Q 45.40625 -4.15625 45.40625 5.171875 
L 45.40625 9.625 
Q 42.625 4.78125 38.28125 2.390625 
Q 33.9375 0 27.875 0 
Q 17.828125 0 11.671875 7.65625 
Q 5.515625 15.328125 5.515625 27.984375 
Q 5.515625 40.671875 11.671875 48.328125 
Q 17.828125 56 27.875 56 
Q 33.9375 56 38.28125 53.609375 
Q 42.625 51.21875 45.40625 46.390625 
L 45.40625 54.6875 
L 54.390625 54.6875 
z
" id="DejaVuSans-103"/>
     </defs>
     <g transform="translate(280.72625 117.882731)scale(0.11 -0.11)">
      <use xlink:href="#DejaVuSans-80"/>
      <use x="60.302734" xlink:href="#DejaVuSans-108"/>
      <use x="88.085938" xlink:href="#DejaVuSans-97"/>
      <use x="149.365234" xlink:href="#DejaVuSans-115"/>
      <use x="201.464844" xlink:href="#DejaVuSans-116"/>
      <use x="240.673828" xlink:href="#DejaVuSans-105"/>
      <use x="268.457031" xlink:href="#DejaVuSans-99"/>
      <use x="323.4375" xlink:href="#DejaVuSans-32"/>
      <use x="355.224609" xlink:href="#DejaVuSans-114"/>
      <use x="396.337891" xlink:href="#DejaVuSans-105"/>
      <use x="424.121094" xlink:href="#DejaVuSans-110"/>
      <use x="487.5" xlink:href="#DejaVuSans-103"/>
      <use x="550.976562" xlink:href="#DejaVuSans-115"/>
      <use x="603.076172" xlink:href="#DejaVuSans-32"/>
      <use x="634.863281" xlink:href="#DejaVuSans-102"/>
      <use x="670.068359" xlink:href="#DejaVuSans-114"/>
      <use x="711.150391" xlink:href="#DejaVuSans-111"/>
      <use x="772.332031" xlink:href="#DejaVuSans-109"/>
      <use x="869.744141" xlink:href="#DejaVuSans-32"/>
      <use x="901.53125" xlink:href="#DejaVuSans-108"/>
      <use x="929.314453" xlink:href="#DejaVuSans-105"/>
      <use x="957.097656" xlink:href="#DejaVuSans-100"/>
      <use x="1020.574219" xlink:href="#DejaVuSans-115"/>
      <use x="1072.673828" xlink:href="#DejaVuSans-58"/>
      <use x="1106.365234" xlink:href="#DejaVuSans-32"/>
      <use x="1138.152344" xlink:href="#DejaVuSans-49"/>
      <use x="1201.775391" xlink:href="#DejaVuSans-54"/>
      <use x="1265.398438" xlink:href="#DejaVuSans-55"/>
     </g>
    </g>
    <g id="patch_30">
     <path d="M 249.92625 134.028669 
L 271.92625 134.028669 
L 271.92625 126.328669 
L 249.92625 126.328669 
z
" style="fill:#92abb2;opacity:0.9;stroke:#ffffff;stroke-linejoin:miter;"/>
    </g>
    <g id="text_16">
     <!-- Lollypop sticks: 185 -->
     <g transform="translate(280.72625 134.028669)scale(0.11 -0.11)">
      <use xlink:href="#DejaVuSans-76"/>
      <use x="55.697266" xlink:href="#DejaVuSans-111"/>
      <use x="116.878906" xlink:href="#DejaVuSans-108"/>
      <use x="144.662109" xlink:href="#DejaVuSans-108"/>
      <use x="172.445312" xlink:href="#DejaVuSans-121"/>
      <use x="231.625" xlink:href="#DejaVuSans-112"/>
      <use x="295.101562" xlink:href="#DejaVuSans-111"/>
      <use x="356.283203" xlink:href="#DejaVuSans-112"/>
      <use x="419.759766" xlink:href="#DejaVuSans-32"/>
      <use x="451.546875" xlink:href="#DejaVuSans-115"/>
      <use x="503.646484" xlink:href="#DejaVuSans-116"/>
      <use x="542.855469" xlink:href="#DejaVuSans-105"/>
      <use x="570.638672" xlink:href="#DejaVuSans-99"/>
      <use x="625.619141" xlink:href="#DejaVuSans-107"/>
      <use x="683.529297" xlink:href="#DejaVuSans-115"/>
      <use x="735.628906" xlink:href="#DejaVuSans-58"/>
      <use x="769.320312" xlink:href="#DejaVuSans-32"/>
      <use x="801.107422" xlink:href="#DejaVuSans-49"/>
      <use x="864.730469" xlink:href="#DejaVuSans-56"/>
      <use x="928.353516" xlink:href="#DejaVuSans-53"/>
     </g>
    </g>
    <g id="patch_31">
     <path d="M 249.92625 150.174606 
L 271.92625 150.174606 
L 271.92625 142.474606 
L 249.92625 142.474606 
z
" style="fill:#8ca2ac;opacity:0.9;stroke:#ffffff;stroke-linejoin:miter;"/>
    </g>
    <g id="text_17">
     <!-- Foil wrappers: 191 -->
     <defs>
      <path d="M 9.8125 72.90625 
L 51.703125 72.90625 
L 51.703125 64.59375 
L 19.671875 64.59375 
L 19.671875 43.109375 
L 48.578125 43.109375 
L 48.578125 34.8125 
L 19.671875 34.8125 
L 19.671875 0 
L 9.8125 0 
z
" id="DejaVuSans-70"/>
     </defs>
     <g transform="translate(280.72625 150.174606)scale(0.11 -0.11)">
      <use xlink:href="#DejaVuSans-70"/>
      <use x="57.472656" xlink:href="#DejaVuSans-111"/>
      <use x="118.654297" xlink:href="#DejaVuSans-105"/>
      <use x="146.4375" xlink:href="#DejaVuSans-108"/>
      <use x="174.220703" xlink:href="#DejaVuSans-32"/>
      <use x="206.007812" xlink:href="#DejaVuSans-119"/>
      <use x="287.794922" xlink:href="#DejaVuSans-114"/>
      <use x="328.908203" xlink:href="#DejaVuSans-97"/>
      <use x="390.1875" xlink:href="#DejaVuSans-112"/>
      <use x="453.664062" xlink:href="#DejaVuSans-112"/>
      <use x="517.140625" xlink:href="#DejaVuSans-101"/>
      <use x="578.664062" xlink:href="#DejaVuSans-114"/>
      <use x="619.777344" xlink:href="#DejaVuSans-115"/>
      <use x="671.876953" xlink:href="#DejaVuSans-58"/>
      <use x="705.568359" xlink:href="#DejaVuSans-32"/>
      <use x="737.355469" xlink:href="#DejaVuSans-49"/>
      <use x="800.978516" xlink:href="#DejaVuSans-57"/>
      <use x="864.601562" xlink:href="#DejaVuSans-49"/>
     </g>
    </g>
    <g id="patch_32">
     <path d="M 249.92625 166.320544 
L 271.92625 166.320544 
L 271.92625 158.620544 
L 249.92625 158.620544 
z
" style="fill:#8598a5;opacity:0.9;stroke:#ffffff;stroke-linejoin:miter;"/>
    </g>
    <g id="text_18">
     <!-- Lids unidentified: 236 -->
     <defs>
      <path d="M 40.578125 39.3125 
Q 47.65625 37.796875 51.625 33 
Q 55.609375 28.21875 55.609375 21.1875 
Q 55.609375 10.40625 48.1875 4.484375 
Q 40.765625 -1.421875 27.09375 -1.421875 
Q 22.515625 -1.421875 17.65625 -0.515625 
Q 12.796875 0.390625 7.625 2.203125 
L 7.625 11.71875 
Q 11.71875 9.328125 16.59375 8.109375 
Q 21.484375 6.890625 26.8125 6.890625 
Q 36.078125 6.890625 40.9375 10.546875 
Q 45.796875 14.203125 45.796875 21.1875 
Q 45.796875 27.640625 41.28125 31.265625 
Q 36.765625 34.90625 28.71875 34.90625 
L 20.21875 34.90625 
L 20.21875 43.015625 
L 29.109375 43.015625 
Q 36.375 43.015625 40.234375 45.921875 
Q 44.09375 48.828125 44.09375 54.296875 
Q 44.09375 59.90625 40.109375 62.90625 
Q 36.140625 65.921875 28.71875 65.921875 
Q 24.65625 65.921875 20.015625 65.03125 
Q 15.375 64.15625 9.8125 62.3125 
L 9.8125 71.09375 
Q 15.4375 72.65625 20.34375 73.4375 
Q 25.25 74.21875 29.59375 74.21875 
Q 40.828125 74.21875 47.359375 69.109375 
Q 53.90625 64.015625 53.90625 55.328125 
Q 53.90625 49.265625 50.4375 45.09375 
Q 46.96875 40.921875 40.578125 39.3125 
z
" id="DejaVuSans-51"/>
     </defs>
     <g transform="translate(280.72625 166.320544)scale(0.11 -0.11)">
      <use xlink:href="#DejaVuSans-76"/>
      <use x="55.712891" xlink:href="#DejaVuSans-105"/>
      <use x="83.496094" xlink:href="#DejaVuSans-100"/>
      <use x="146.972656" xlink:href="#DejaVuSans-115"/>
      <use x="199.072266" xlink:href="#DejaVuSans-32"/>
      <use x="230.859375" xlink:href="#DejaVuSans-117"/>
      <use x="294.238281" xlink:href="#DejaVuSans-110"/>
      <use x="357.617188" xlink:href="#DejaVuSans-105"/>
      <use x="385.400391" xlink:href="#DejaVuSans-100"/>
      <use x="448.876953" xlink:href="#DejaVuSans-101"/>
      <use x="510.400391" xlink:href="#DejaVuSans-110"/>
      <use x="573.779297" xlink:href="#DejaVuSans-116"/>
      <use x="612.988281" xlink:href="#DejaVuSans-105"/>
      <use x="640.771484" xlink:href="#DejaVuSans-102"/>
      <use x="675.976562" xlink:href="#DejaVuSans-105"/>
      <use x="703.759766" xlink:href="#DejaVuSans-101"/>
      <use x="765.283203" xlink:href="#DejaVuSans-100"/>
      <use x="828.759766" xlink:href="#DejaVuSans-58"/>
      <use x="862.451172" xlink:href="#DejaVuSans-32"/>
      <use x="894.238281" xlink:href="#DejaVuSans-50"/>
      <use x="957.861328" xlink:href="#DejaVuSans-51"/>
      <use x="1021.484375" xlink:href="#DejaVuSans-54"/>
     </g>
    </g>
    <g id="patch_33">
     <path d="M 249.92625 182.466481 
L 271.92625 182.466481 
L 271.92625 174.766481 
L 249.92625 174.766481 
z
" style="fill:#7e8f9e;opacity:0.9;stroke:#ffffff;stroke-linejoin:miter;"/>
    </g>
    <g id="text_19">
     <!-- Metal bottle caps &amp; lids: 252 -->
     <defs>
      <path d="M 9.8125 72.90625 
L 24.515625 72.90625 
L 43.109375 23.296875 
L 61.8125 72.90625 
L 76.515625 72.90625 
L 76.515625 0 
L 66.890625 0 
L 66.890625 64.015625 
L 48.09375 14.015625 
L 38.1875 14.015625 
L 19.390625 64.015625 
L 19.390625 0 
L 9.8125 0 
z
" id="DejaVuSans-77"/>
      <path d="M 24.3125 39.203125 
Q 19.875 35.25 17.796875 31.3125 
Q 15.71875 27.390625 15.71875 23.09375 
Q 15.71875 15.96875 20.890625 11.234375 
Q 26.078125 6.5 33.890625 6.5 
Q 38.53125 6.5 42.578125 8.03125 
Q 46.625 9.578125 50.203125 12.703125 
z
M 31.203125 44.671875 
L 56 19.28125 
Q 58.890625 23.640625 60.5 28.59375 
Q 62.109375 33.546875 62.40625 39.109375 
L 71.484375 39.109375 
Q 70.90625 32.671875 68.359375 26.359375 
Q 65.828125 20.0625 61.28125 13.921875 
L 74.90625 0 
L 62.59375 0 
L 55.609375 7.171875 
Q 50.53125 2.828125 44.96875 0.703125 
Q 39.40625 -1.421875 33.015625 -1.421875 
Q 21.234375 -1.421875 13.765625 5.296875 
Q 6.296875 12.015625 6.296875 22.515625 
Q 6.296875 28.765625 9.5625 34.25 
Q 12.84375 39.75 19.390625 44.578125 
Q 17.046875 47.65625 15.8125 50.703125 
Q 14.59375 53.765625 14.59375 56.6875 
Q 14.59375 64.59375 20.015625 69.40625 
Q 25.4375 74.21875 34.421875 74.21875 
Q 38.484375 74.21875 42.5 73.34375 
Q 46.53125 72.46875 50.6875 70.703125 
L 50.6875 61.8125 
Q 46.4375 64.109375 42.578125 65.296875 
Q 38.71875 66.5 35.40625 66.5 
Q 30.28125 66.5 27.078125 63.78125 
Q 23.875 61.078125 23.875 56.78125 
Q 23.875 54.296875 25.3125 51.78125 
Q 26.765625 49.265625 31.203125 44.671875 
z
" id="DejaVuSans-38"/>
     </defs>
     <g transform="translate(280.72625 182.466481)scale(0.11 -0.11)">
      <use xlink:href="#DejaVuSans-77"/>
      <use x="86.279297" xlink:href="#DejaVuSans-101"/>
      <use x="147.802734" xlink:href="#DejaVuSans-116"/>
      <use x="187.011719" xlink:href="#DejaVuSans-97"/>
      <use x="248.291016" xlink:href="#DejaVuSans-108"/>
      <use x="276.074219" xlink:href="#DejaVuSans-32"/>
      <use x="307.861328" xlink:href="#DejaVuSans-98"/>
      <use x="371.337891" xlink:href="#DejaVuSans-111"/>
      <use x="432.519531" xlink:href="#DejaVuSans-116"/>
      <use x="471.728516" xlink:href="#DejaVuSans-116"/>
      <use x="510.9375" xlink:href="#DejaVuSans-108"/>
      <use x="538.720703" xlink:href="#DejaVuSans-101"/>
      <use x="600.244141" xlink:href="#DejaVuSans-32"/>
      <use x="632.03125" xlink:href="#DejaVuSans-99"/>
      <use x="687.011719" xlink:href="#DejaVuSans-97"/>
      <use x="748.291016" xlink:href="#DejaVuSans-112"/>
      <use x="811.767578" xlink:href="#DejaVuSans-115"/>
      <use x="863.867188" xlink:href="#DejaVuSans-32"/>
      <use x="895.654297" xlink:href="#DejaVuSans-38"/>
      <use x="973.632812" xlink:href="#DejaVuSans-32"/>
      <use x="1005.419922" xlink:href="#DejaVuSans-108"/>
      <use x="1033.203125" xlink:href="#DejaVuSans-105"/>
      <use x="1060.986328" xlink:href="#DejaVuSans-100"/>
      <use x="1124.462891" xlink:href="#DejaVuSans-115"/>
      <use x="1176.5625" xlink:href="#DejaVuSans-58"/>
      <use x="1210.253906" xlink:href="#DejaVuSans-32"/>
      <use x="1242.041016" xlink:href="#DejaVuSans-50"/>
      <use x="1305.664062" xlink:href="#DejaVuSans-53"/>
      <use x="1369.287109" xlink:href="#DejaVuSans-50"/>
     </g>
    </g>
    <g id="patch_34">
     <path d="M 249.92625 198.612419 
L 271.92625 198.612419 
L 271.92625 190.912419 
L 249.92625 190.912419 
z
" style="fill:#778697;opacity:0.9;stroke:#ffffff;stroke-linejoin:miter;"/>
    </g>
    <g id="text_20">
     <!-- Plastic construction waste: 262 -->
     <g transform="translate(280.72625 198.612419)scale(0.11 -0.11)">
      <use xlink:href="#DejaVuSans-80"/>
      <use x="60.302734" xlink:href="#DejaVuSans-108"/>
      <use x="88.085938" xlink:href="#DejaVuSans-97"/>
      <use x="149.365234" xlink:href="#DejaVuSans-115"/>
      <use x="201.464844" xlink:href="#DejaVuSans-116"/>
      <use x="240.673828" xlink:href="#DejaVuSans-105"/>
      <use x="268.457031" xlink:href="#DejaVuSans-99"/>
      <use x="323.4375" xlink:href="#DejaVuSans-32"/>
      <use x="355.224609" xlink:href="#DejaVuSans-99"/>
      <use x="410.205078" xlink:href="#DejaVuSans-111"/>
      <use x="471.386719" xlink:href="#DejaVuSans-110"/>
      <use x="534.765625" xlink:href="#DejaVuSans-115"/>
      <use x="586.865234" xlink:href="#DejaVuSans-116"/>
      <use x="626.074219" xlink:href="#DejaVuSans-114"/>
      <use x="667.1875" xlink:href="#DejaVuSans-117"/>
      <use x="730.566406" xlink:href="#DejaVuSans-99"/>
      <use x="785.546875" xlink:href="#DejaVuSans-116"/>
      <use x="824.755859" xlink:href="#DejaVuSans-105"/>
      <use x="852.539062" xlink:href="#DejaVuSans-111"/>
      <use x="913.720703" xlink:href="#DejaVuSans-110"/>
      <use x="977.099609" xlink:href="#DejaVuSans-32"/>
      <use x="1008.886719" xlink:href="#DejaVuSans-119"/>
      <use x="1090.673828" xlink:href="#DejaVuSans-97"/>
      <use x="1151.953125" xlink:href="#DejaVuSans-115"/>
      <use x="1204.052734" xlink:href="#DejaVuSans-116"/>
      <use x="1243.261719" xlink:href="#DejaVuSans-101"/>
      <use x="1304.785156" xlink:href="#DejaVuSans-58"/>
      <use x="1338.476562" xlink:href="#DejaVuSans-32"/>
      <use x="1370.263672" xlink:href="#DejaVuSans-50"/>
      <use x="1433.886719" xlink:href="#DejaVuSans-54"/>
      <use x="1497.509766" xlink:href="#DejaVuSans-50"/>
     </g>
    </g>
    <g id="patch_35">
     <path d="M 249.92625 214.758356 
L 271.92625 214.758356 
L 271.92625 207.058356 
L 249.92625 207.058356 
z
" style="fill:#717c91;opacity:0.9;stroke:#ffffff;stroke-linejoin:miter;"/>
    </g>
    <g id="text_21">
     <!-- Drink lids: 284 -->
     <defs>
      <path d="M 19.671875 64.796875 
L 19.671875 8.109375 
L 31.59375 8.109375 
Q 46.6875 8.109375 53.6875 14.9375 
Q 60.6875 21.78125 60.6875 36.53125 
Q 60.6875 51.171875 53.6875 57.984375 
Q 46.6875 64.796875 31.59375 64.796875 
z
M 9.8125 72.90625 
L 30.078125 72.90625 
Q 51.265625 72.90625 61.171875 64.09375 
Q 71.09375 55.28125 71.09375 36.53125 
Q 71.09375 17.671875 61.125 8.828125 
Q 51.171875 0 30.078125 0 
L 9.8125 0 
z
" id="DejaVuSans-68"/>
     </defs>
     <g transform="translate(280.72625 214.758356)scale(0.11 -0.11)">
      <use xlink:href="#DejaVuSans-68"/>
      <use x="77.001953" xlink:href="#DejaVuSans-114"/>
      <use x="118.115234" xlink:href="#DejaVuSans-105"/>
      <use x="145.898438" xlink:href="#DejaVuSans-110"/>
      <use x="209.277344" xlink:href="#DejaVuSans-107"/>
      <use x="267.1875" xlink:href="#DejaVuSans-32"/>
      <use x="298.974609" xlink:href="#DejaVuSans-108"/>
      <use x="326.757812" xlink:href="#DejaVuSans-105"/>
      <use x="354.541016" xlink:href="#DejaVuSans-100"/>
      <use x="418.017578" xlink:href="#DejaVuSans-115"/>
      <use x="470.117188" xlink:href="#DejaVuSans-58"/>
      <use x="503.808594" xlink:href="#DejaVuSans-32"/>
      <use x="535.595703" xlink:href="#DejaVuSans-50"/>
      <use x="599.21875" xlink:href="#DejaVuSans-56"/>
      <use x="662.841797" xlink:href="#DejaVuSans-52"/>
     </g>
    </g>
    <g id="patch_36">
     <path d="M 249.92625 230.904294 
L 271.92625 230.904294 
L 271.92625 223.204294 
L 249.92625 223.204294 
z
" style="fill:#6a738a;opacity:0.9;stroke:#ffffff;stroke-linejoin:miter;"/>
    </g>
    <g id="text_22">
     <!-- Tobacco wrappers: 291 -->
     <defs>
      <path d="M -0.296875 72.90625 
L 61.375 72.90625 
L 61.375 64.59375 
L 35.5 64.59375 
L 35.5 0 
L 25.59375 0 
L 25.59375 64.59375 
L -0.296875 64.59375 
z
" id="DejaVuSans-84"/>
     </defs>
     <g transform="translate(280.72625 230.904294)scale(0.11 -0.11)">
      <use xlink:href="#DejaVuSans-84"/>
      <use x="60.818359" xlink:href="#DejaVuSans-111"/>
      <use x="122" xlink:href="#DejaVuSans-98"/>
      <use x="185.476562" xlink:href="#DejaVuSans-97"/>
      <use x="246.755859" xlink:href="#DejaVuSans-99"/>
      <use x="301.736328" xlink:href="#DejaVuSans-99"/>
      <use x="356.716797" xlink:href="#DejaVuSans-111"/>
      <use x="417.898438" xlink:href="#DejaVuSans-32"/>
      <use x="449.685547" xlink:href="#DejaVuSans-119"/>
      <use x="531.472656" xlink:href="#DejaVuSans-114"/>
      <use x="572.585938" xlink:href="#DejaVuSans-97"/>
      <use x="633.865234" xlink:href="#DejaVuSans-112"/>
      <use x="697.341797" xlink:href="#DejaVuSans-112"/>
      <use x="760.818359" xlink:href="#DejaVuSans-101"/>
      <use x="822.341797" xlink:href="#DejaVuSans-114"/>
      <use x="863.455078" xlink:href="#DejaVuSans-115"/>
      <use x="915.554688" xlink:href="#DejaVuSans-58"/>
      <use x="949.246094" xlink:href="#DejaVuSans-32"/>
      <use x="981.033203" xlink:href="#DejaVuSans-50"/>
      <use x="1044.65625" xlink:href="#DejaVuSans-57"/>
      <use x="1108.279297" xlink:href="#DejaVuSans-49"/>
     </g>
    </g>
    <g id="patch_37">
     <path d="M 249.92625 247.050231 
L 271.92625 247.050231 
L 271.92625 239.350231 
L 249.92625 239.350231 
z
" style="fill:#636a83;opacity:0.9;stroke:#ffffff;stroke-linejoin:miter;"/>
    </g>
    <g id="text_23">
     <!-- Paper fragments: 321 -->
     <g transform="translate(280.72625 247.050231)scale(0.11 -0.11)">
      <use xlink:href="#DejaVuSans-80"/>
      <use x="60.240234" xlink:href="#DejaVuSans-97"/>
      <use x="121.519531" xlink:href="#DejaVuSans-112"/>
      <use x="184.996094" xlink:href="#DejaVuSans-101"/>
      <use x="246.519531" xlink:href="#DejaVuSans-114"/>
      <use x="287.632812" xlink:href="#DejaVuSans-32"/>
      <use x="319.419922" xlink:href="#DejaVuSans-102"/>
      <use x="354.625" xlink:href="#DejaVuSans-114"/>
      <use x="395.738281" xlink:href="#DejaVuSans-97"/>
      <use x="457.017578" xlink:href="#DejaVuSans-103"/>
      <use x="520.494141" xlink:href="#DejaVuSans-109"/>
      <use x="617.90625" xlink:href="#DejaVuSans-101"/>
      <use x="679.429688" xlink:href="#DejaVuSans-110"/>
      <use x="742.808594" xlink:href="#DejaVuSans-116"/>
      <use x="782.017578" xlink:href="#DejaVuSans-115"/>
      <use x="834.117188" xlink:href="#DejaVuSans-58"/>
      <use x="867.808594" xlink:href="#DejaVuSans-32"/>
      <use x="899.595703" xlink:href="#DejaVuSans-51"/>
      <use x="963.21875" xlink:href="#DejaVuSans-50"/>
      <use x="1026.841797" xlink:href="#DejaVuSans-49"/>
     </g>
    </g>
    <g id="patch_38">
     <path d="M 249.92625 263.196169 
L 271.92625 263.196169 
L 271.92625 255.496169 
L 249.92625 255.496169 
z
" style="fill:#5c617c;opacity:0.9;stroke:#ffffff;stroke-linejoin:miter;"/>
    </g>
    <g id="text_24">
     <!-- Glass fragments: 355 -->
     <g transform="translate(280.72625 263.196169)scale(0.11 -0.11)">
      <use xlink:href="#DejaVuSans-71"/>
      <use x="77.490234" xlink:href="#DejaVuSans-108"/>
      <use x="105.273438" xlink:href="#DejaVuSans-97"/>
      <use x="166.552734" xlink:href="#DejaVuSans-115"/>
      <use x="218.652344" xlink:href="#DejaVuSans-115"/>
      <use x="270.751953" xlink:href="#DejaVuSans-32"/>
      <use x="302.539062" xlink:href="#DejaVuSans-102"/>
      <use x="337.744141" xlink:href="#DejaVuSans-114"/>
      <use x="378.857422" xlink:href="#DejaVuSans-97"/>
      <use x="440.136719" xlink:href="#DejaVuSans-103"/>
      <use x="503.613281" xlink:href="#DejaVuSans-109"/>
      <use x="601.025391" xlink:href="#DejaVuSans-101"/>
      <use x="662.548828" xlink:href="#DejaVuSans-110"/>
      <use x="725.927734" xlink:href="#DejaVuSans-116"/>
      <use x="765.136719" xlink:href="#DejaVuSans-115"/>
      <use x="817.236328" xlink:href="#DejaVuSans-58"/>
      <use x="850.927734" xlink:href="#DejaVuSans-32"/>
      <use x="882.714844" xlink:href="#DejaVuSans-51"/>
      <use x="946.337891" xlink:href="#DejaVuSans-53"/>
      <use x="1009.960938" xlink:href="#DejaVuSans-53"/>
     </g>
    </g>
    <g id="patch_39">
     <path d="M 249.92625 279.342106 
L 271.92625 279.342106 
L 271.92625 271.642106 
L 249.92625 271.642106 
z
" style="fill:#565776;opacity:0.9;stroke:#ffffff;stroke-linejoin:miter;"/>
    </g>
    <g id="text_25">
     <!-- Bottles: 529 -->
     <defs>
      <path d="M 19.671875 34.8125 
L 19.671875 8.109375 
L 35.5 8.109375 
Q 43.453125 8.109375 47.28125 11.40625 
Q 51.125 14.703125 51.125 21.484375 
Q 51.125 28.328125 47.28125 31.5625 
Q 43.453125 34.8125 35.5 34.8125 
z
M 19.671875 64.796875 
L 19.671875 42.828125 
L 34.28125 42.828125 
Q 41.5 42.828125 45.03125 45.53125 
Q 48.578125 48.25 48.578125 53.8125 
Q 48.578125 59.328125 45.03125 62.0625 
Q 41.5 64.796875 34.28125 64.796875 
z
M 9.8125 72.90625 
L 35.015625 72.90625 
Q 46.296875 72.90625 52.390625 68.21875 
Q 58.5 63.53125 58.5 54.890625 
Q 58.5 48.1875 55.375 44.234375 
Q 52.25 40.28125 46.1875 39.3125 
Q 53.46875 37.75 57.5 32.78125 
Q 61.53125 27.828125 61.53125 20.40625 
Q 61.53125 10.640625 54.890625 5.3125 
Q 48.25 0 35.984375 0 
L 9.8125 0 
z
" id="DejaVuSans-66"/>
     </defs>
     <g transform="translate(280.72625 279.342106)scale(0.11 -0.11)">
      <use xlink:href="#DejaVuSans-66"/>
      <use x="68.603516" xlink:href="#DejaVuSans-111"/>
      <use x="129.785156" xlink:href="#DejaVuSans-116"/>
      <use x="168.994141" xlink:href="#DejaVuSans-116"/>
      <use x="208.203125" xlink:href="#DejaVuSans-108"/>
      <use x="235.986328" xlink:href="#DejaVuSans-101"/>
      <use x="297.509766" xlink:href="#DejaVuSans-115"/>
      <use x="349.609375" xlink:href="#DejaVuSans-58"/>
      <use x="383.300781" xlink:href="#DejaVuSans-32"/>
      <use x="415.087891" xlink:href="#DejaVuSans-53"/>
      <use x="478.710938" xlink:href="#DejaVuSans-50"/>
      <use x="542.333984" xlink:href="#DejaVuSans-57"/>
     </g>
    </g>
    <g id="patch_40">
     <path d="M 249.92625 295.488044 
L 271.92625 295.488044 
L 271.92625 287.788044 
L 249.92625 287.788044 
z
" style="fill:#4f4f6e;opacity:0.9;stroke:#ffffff;stroke-linejoin:miter;"/>
    </g>
    <g id="text_26">
     <!-- Industrial sheeting: 734 -->
     <g transform="translate(280.72625 295.488044)scale(0.11 -0.11)">
      <use xlink:href="#DejaVuSans-73"/>
      <use x="29.492188" xlink:href="#DejaVuSans-110"/>
      <use x="92.871094" xlink:href="#DejaVuSans-100"/>
      <use x="156.347656" xlink:href="#DejaVuSans-117"/>
      <use x="219.726562" xlink:href="#DejaVuSans-115"/>
      <use x="271.826172" xlink:href="#DejaVuSans-116"/>
      <use x="311.035156" xlink:href="#DejaVuSans-114"/>
      <use x="352.148438" xlink:href="#DejaVuSans-105"/>
      <use x="379.931641" xlink:href="#DejaVuSans-97"/>
      <use x="441.210938" xlink:href="#DejaVuSans-108"/>
      <use x="468.994141" xlink:href="#DejaVuSans-32"/>
      <use x="500.78125" xlink:href="#DejaVuSans-115"/>
      <use x="552.880859" xlink:href="#DejaVuSans-104"/>
      <use x="616.259766" xlink:href="#DejaVuSans-101"/>
      <use x="677.783203" xlink:href="#DejaVuSans-101"/>
      <use x="739.306641" xlink:href="#DejaVuSans-116"/>
      <use x="778.515625" xlink:href="#DejaVuSans-105"/>
      <use x="806.298828" xlink:href="#DejaVuSans-110"/>
      <use x="869.677734" xlink:href="#DejaVuSans-103"/>
      <use x="933.154297" xlink:href="#DejaVuSans-58"/>
      <use x="966.845703" xlink:href="#DejaVuSans-32"/>
      <use x="998.632812" xlink:href="#DejaVuSans-55"/>
      <use x="1062.255859" xlink:href="#DejaVuSans-51"/>
      <use x="1125.878906" xlink:href="#DejaVuSans-52"/>
     </g>
    </g>
    <g id="patch_41">
     <path d="M 249.92625 311.633981 
L 271.92625 311.633981 
L 271.92625 303.933981 
L 249.92625 303.933981 
z
" style="fill:#484864;opacity:0.9;stroke:#ffffff;stroke-linejoin:miter;"/>
    </g>
    <g id="text_27">
     <!-- Polystyrene pieces 2.5 &gt; &lt; 50cm: 1,068 -->
     <defs>
      <path d="M 10.59375 49.21875 
L 10.59375 58.109375 
L 73.1875 35.40625 
L 73.1875 27.296875 
L 10.59375 4.59375 
L 10.59375 13.484375 
L 60.890625 31.296875 
z
" id="DejaVuSans-62"/>
      <path d="M 73.1875 49.21875 
L 22.796875 31.296875 
L 73.1875 13.484375 
L 73.1875 4.59375 
L 10.59375 27.296875 
L 10.59375 35.40625 
L 73.1875 58.109375 
z
" id="DejaVuSans-60"/>
     </defs>
     <g transform="translate(280.72625 311.633981)scale(0.11 -0.11)">
      <use xlink:href="#DejaVuSans-80"/>
      <use x="60.255859" xlink:href="#DejaVuSans-111"/>
      <use x="121.4375" xlink:href="#DejaVuSans-108"/>
      <use x="149.220703" xlink:href="#DejaVuSans-121"/>
      <use x="208.400391" xlink:href="#DejaVuSans-115"/>
      <use x="260.5" xlink:href="#DejaVuSans-116"/>
      <use x="299.708984" xlink:href="#DejaVuSans-121"/>
      <use x="358.888672" xlink:href="#DejaVuSans-114"/>
      <use x="399.970703" xlink:href="#DejaVuSans-101"/>
      <use x="461.494141" xlink:href="#DejaVuSans-110"/>
      <use x="524.873047" xlink:href="#DejaVuSans-101"/>
      <use x="586.396484" xlink:href="#DejaVuSans-32"/>
      <use x="618.183594" xlink:href="#DejaVuSans-112"/>
      <use x="681.660156" xlink:href="#DejaVuSans-105"/>
      <use x="709.443359" xlink:href="#DejaVuSans-101"/>
      <use x="770.966797" xlink:href="#DejaVuSans-99"/>
      <use x="825.947266" xlink:href="#DejaVuSans-101"/>
      <use x="887.470703" xlink:href="#DejaVuSans-115"/>
      <use x="939.570312" xlink:href="#DejaVuSans-32"/>
      <use x="971.357422" xlink:href="#DejaVuSans-50"/>
      <use x="1034.980469" xlink:href="#DejaVuSans-46"/>
      <use x="1066.767578" xlink:href="#DejaVuSans-53"/>
      <use x="1130.390625" xlink:href="#DejaVuSans-32"/>
      <use x="1162.177734" xlink:href="#DejaVuSans-62"/>
      <use x="1245.966797" xlink:href="#DejaVuSans-32"/>
      <use x="1277.753906" xlink:href="#DejaVuSans-60"/>
      <use x="1361.542969" xlink:href="#DejaVuSans-32"/>
      <use x="1393.330078" xlink:href="#DejaVuSans-53"/>
      <use x="1456.953125" xlink:href="#DejaVuSans-48"/>
      <use x="1520.576172" xlink:href="#DejaVuSans-99"/>
      <use x="1575.556641" xlink:href="#DejaVuSans-109"/>
      <use x="1672.96875" xlink:href="#DejaVuSans-58"/>
      <use x="1706.660156" xlink:href="#DejaVuSans-32"/>
      <use x="1738.447266" xlink:href="#DejaVuSans-49"/>
      <use x="1802.070312" xlink:href="#DejaVuSans-44"/>
      <use x="1833.857422" xlink:href="#DejaVuSans-48"/>
      <use x="1897.480469" xlink:href="#DejaVuSans-54"/>
      <use x="1961.103516" xlink:href="#DejaVuSans-56"/>
     </g>
    </g>
    <g id="patch_42">
     <path d="M 249.92625 327.779919 
L 271.92625 327.779919 
L 271.92625 320.079919 
L 249.92625 320.079919 
z
" style="fill:#41415b;opacity:0.9;stroke:#ffffff;stroke-linejoin:miter;"/>
    </g>
    <g id="text_28">
     <!-- Candy and snack wrappers: 1,133 -->
     <g transform="translate(280.72625 327.779919)scale(0.11 -0.11)">
      <use xlink:href="#DejaVuSans-67"/>
      <use x="69.824219" xlink:href="#DejaVuSans-97"/>
      <use x="131.103516" xlink:href="#DejaVuSans-110"/>
      <use x="194.482422" xlink:href="#DejaVuSans-100"/>
      <use x="257.958984" xlink:href="#DejaVuSans-121"/>
      <use x="317.138672" xlink:href="#DejaVuSans-32"/>
      <use x="348.925781" xlink:href="#DejaVuSans-97"/>
      <use x="410.205078" xlink:href="#DejaVuSans-110"/>
      <use x="473.583984" xlink:href="#DejaVuSans-100"/>
      <use x="537.060547" xlink:href="#DejaVuSans-32"/>
      <use x="568.847656" xlink:href="#DejaVuSans-115"/>
      <use x="620.947266" xlink:href="#DejaVuSans-110"/>
      <use x="684.326172" xlink:href="#DejaVuSans-97"/>
      <use x="745.605469" xlink:href="#DejaVuSans-99"/>
      <use x="800.585938" xlink:href="#DejaVuSans-107"/>
      <use x="858.496094" xlink:href="#DejaVuSans-32"/>
      <use x="890.283203" xlink:href="#DejaVuSans-119"/>
      <use x="972.070312" xlink:href="#DejaVuSans-114"/>
      <use x="1013.183594" xlink:href="#DejaVuSans-97"/>
      <use x="1074.462891" xlink:href="#DejaVuSans-112"/>
      <use x="1137.939453" xlink:href="#DejaVuSans-112"/>
      <use x="1201.416016" xlink:href="#DejaVuSans-101"/>
      <use x="1262.939453" xlink:href="#DejaVuSans-114"/>
      <use x="1304.052734" xlink:href="#DejaVuSans-115"/>
      <use x="1356.152344" xlink:href="#DejaVuSans-58"/>
      <use x="1389.84375" xlink:href="#DejaVuSans-32"/>
      <use x="1421.630859" xlink:href="#DejaVuSans-49"/>
      <use x="1485.253906" xlink:href="#DejaVuSans-44"/>
      <use x="1517.041016" xlink:href="#DejaVuSans-49"/>
      <use x="1580.664062" xlink:href="#DejaVuSans-51"/>
      <use x="1644.287109" xlink:href="#DejaVuSans-51"/>
     </g>
    </g>
    <g id="patch_43">
     <path d="M 249.92625 343.925856 
L 271.92625 343.925856 
L 271.92625 336.225856 
L 249.92625 336.225856 
z
" style="fill:#3b3b52;opacity:0.9;stroke:#ffffff;stroke-linejoin:miter;"/>
    </g>
    <g id="text_29">
     <!-- Cotton swabs: 1,228 -->
     <g transform="translate(280.72625 343.925856)scale(0.11 -0.11)">
      <use xlink:href="#DejaVuSans-67"/>
      <use x="69.824219" xlink:href="#DejaVuSans-111"/>
      <use x="131.005859" xlink:href="#DejaVuSans-116"/>
      <use x="170.214844" xlink:href="#DejaVuSans-116"/>
      <use x="209.423828" xlink:href="#DejaVuSans-111"/>
      <use x="270.605469" xlink:href="#DejaVuSans-110"/>
      <use x="333.984375" xlink:href="#DejaVuSans-32"/>
      <use x="365.771484" xlink:href="#DejaVuSans-115"/>
      <use x="417.871094" xlink:href="#DejaVuSans-119"/>
      <use x="499.658203" xlink:href="#DejaVuSans-97"/>
      <use x="560.9375" xlink:href="#DejaVuSans-98"/>
      <use x="624.414062" xlink:href="#DejaVuSans-115"/>
      <use x="676.513672" xlink:href="#DejaVuSans-58"/>
      <use x="710.205078" xlink:href="#DejaVuSans-32"/>
      <use x="741.992188" xlink:href="#DejaVuSans-49"/>
      <use x="805.615234" xlink:href="#DejaVuSans-44"/>
      <use x="837.402344" xlink:href="#DejaVuSans-50"/>
      <use x="901.025391" xlink:href="#DejaVuSans-50"/>
      <use x="964.648438" xlink:href="#DejaVuSans-56"/>
     </g>
    </g>
    <g id="patch_44">
     <path d="M 249.92625 360.071794 
L 271.92625 360.071794 
L 271.92625 352.371794 
L 249.92625 352.371794 
z
" style="fill:#343448;opacity:0.9;stroke:#ffffff;stroke-linejoin:miter;"/>
    </g>
    <g id="text_30">
     <!-- Plastic pieces 2.5 &gt; &lt; 50cm: 1,281 -->
     <g transform="translate(280.72625 360.071794)scale(0.11 -0.11)">
      <use xlink:href="#DejaVuSans-80"/>
      <use x="60.302734" xlink:href="#DejaVuSans-108"/>
      <use x="88.085938" xlink:href="#DejaVuSans-97"/>
      <use x="149.365234" xlink:href="#DejaVuSans-115"/>
      <use x="201.464844" xlink:href="#DejaVuSans-116"/>
      <use x="240.673828" xlink:href="#DejaVuSans-105"/>
      <use x="268.457031" xlink:href="#DejaVuSans-99"/>
      <use x="323.4375" xlink:href="#DejaVuSans-32"/>
      <use x="355.224609" xlink:href="#DejaVuSans-112"/>
      <use x="418.701172" xlink:href="#DejaVuSans-105"/>
      <use x="446.484375" xlink:href="#DejaVuSans-101"/>
      <use x="508.007812" xlink:href="#DejaVuSans-99"/>
      <use x="562.988281" xlink:href="#DejaVuSans-101"/>
      <use x="624.511719" xlink:href="#DejaVuSans-115"/>
      <use x="676.611328" xlink:href="#DejaVuSans-32"/>
      <use x="708.398438" xlink:href="#DejaVuSans-50"/>
      <use x="772.021484" xlink:href="#DejaVuSans-46"/>
      <use x="803.808594" xlink:href="#DejaVuSans-53"/>
      <use x="867.431641" xlink:href="#DejaVuSans-32"/>
      <use x="899.21875" xlink:href="#DejaVuSans-62"/>
      <use x="983.007812" xlink:href="#DejaVuSans-32"/>
      <use x="1014.794922" xlink:href="#DejaVuSans-60"/>
      <use x="1098.583984" xlink:href="#DejaVuSans-32"/>
      <use x="1130.371094" xlink:href="#DejaVuSans-53"/>
      <use x="1193.994141" xlink:href="#DejaVuSans-48"/>
      <use x="1257.617188" xlink:href="#DejaVuSans-99"/>
      <use x="1312.597656" xlink:href="#DejaVuSans-109"/>
      <use x="1410.009766" xlink:href="#DejaVuSans-58"/>
      <use x="1443.701172" xlink:href="#DejaVuSans-32"/>
      <use x="1475.488281" xlink:href="#DejaVuSans-49"/>
      <use x="1539.111328" xlink:href="#DejaVuSans-44"/>
      <use x="1570.898438" xlink:href="#DejaVuSans-50"/>
      <use x="1634.521484" xlink:href="#DejaVuSans-56"/>
      <use x="1698.144531" xlink:href="#DejaVuSans-49"/>
     </g>
    </g>
    <g id="patch_45">
     <path d="M 249.92625 376.217731 
L 271.92625 376.217731 
L 271.92625 368.517731 
L 249.92625 368.517731 
z
" style="fill:#2d2d3f;opacity:0.9;stroke:#ffffff;stroke-linejoin:miter;"/>
    </g>
    <g id="text_31">
     <!-- Cigarette butts: 4,219 -->
     <g transform="translate(280.72625 376.217731)scale(0.11 -0.11)">
      <use xlink:href="#DejaVuSans-67"/>
      <use x="69.824219" xlink:href="#DejaVuSans-105"/>
      <use x="97.607422" xlink:href="#DejaVuSans-103"/>
      <use x="161.083984" xlink:href="#DejaVuSans-97"/>
      <use x="222.363281" xlink:href="#DejaVuSans-114"/>
      <use x="263.445312" xlink:href="#DejaVuSans-101"/>
      <use x="324.96875" xlink:href="#DejaVuSans-116"/>
      <use x="364.177734" xlink:href="#DejaVuSans-116"/>
      <use x="403.386719" xlink:href="#DejaVuSans-101"/>
      <use x="464.910156" xlink:href="#DejaVuSans-32"/>
      <use x="496.697266" xlink:href="#DejaVuSans-98"/>
      <use x="560.173828" xlink:href="#DejaVuSans-117"/>
      <use x="623.552734" xlink:href="#DejaVuSans-116"/>
      <use x="662.761719" xlink:href="#DejaVuSans-116"/>
      <use x="701.970703" xlink:href="#DejaVuSans-115"/>
      <use x="754.070312" xlink:href="#DejaVuSans-58"/>
      <use x="787.761719" xlink:href="#DejaVuSans-32"/>
      <use x="819.548828" xlink:href="#DejaVuSans-52"/>
      <use x="883.171875" xlink:href="#DejaVuSans-44"/>
      <use x="914.958984" xlink:href="#DejaVuSans-50"/>
      <use x="978.582031" xlink:href="#DejaVuSans-49"/>
      <use x="1042.205078" xlink:href="#DejaVuSans-57"/>
     </g>
    </g>
   </g>
  </g>
  <g id="text_32">
   <!-- Year two all objects found,  total=15,011 -->
   <defs>
    <path d="M -0.203125 72.90625 
L 10.40625 72.90625 
L 30.609375 42.921875 
L 50.6875 72.90625 
L 61.28125 72.90625 
L 35.5 34.71875 
L 35.5 0 
L 25.59375 0 
L 25.59375 34.71875 
z
" id="DejaVuSans-89"/>
    <path d="M 10.59375 45.40625 
L 73.1875 45.40625 
L 73.1875 37.203125 
L 10.59375 37.203125 
z
M 10.59375 25.484375 
L 73.1875 25.484375 
L 73.1875 17.1875 
L 10.59375 17.1875 
z
" id="DejaVuSans-61"/>
   </defs>
   <g transform="translate(73.70625 17.837812)scale(0.14 -0.14)">
    <use xlink:href="#DejaVuSans-89"/>
    <use x="60.880859" xlink:href="#DejaVuSans-101"/>
    <use x="122.404297" xlink:href="#DejaVuSans-97"/>
    <use x="183.683594" xlink:href="#DejaVuSans-114"/>
    <use x="224.796875" xlink:href="#DejaVuSans-32"/>
    <use x="256.583984" xlink:href="#DejaVuSans-116"/>
    <use x="295.792969" xlink:href="#DejaVuSans-119"/>
    <use x="377.580078" xlink:href="#DejaVuSans-111"/>
    <use x="438.761719" xlink:href="#DejaVuSans-32"/>
    <use x="470.548828" xlink:href="#DejaVuSans-97"/>
    <use x="531.828125" xlink:href="#DejaVuSans-108"/>
    <use x="559.611328" xlink:href="#DejaVuSans-108"/>
    <use x="587.394531" xlink:href="#DejaVuSans-32"/>
    <use x="619.181641" xlink:href="#DejaVuSans-111"/>
    <use x="680.363281" xlink:href="#DejaVuSans-98"/>
    <use x="743.839844" xlink:href="#DejaVuSans-106"/>
    <use x="771.623047" xlink:href="#DejaVuSans-101"/>
    <use x="833.146484" xlink:href="#DejaVuSans-99"/>
    <use x="888.126953" xlink:href="#DejaVuSans-116"/>
    <use x="927.335938" xlink:href="#DejaVuSans-115"/>
    <use x="979.435547" xlink:href="#DejaVuSans-32"/>
    <use x="1011.222656" xlink:href="#DejaVuSans-102"/>
    <use x="1046.427734" xlink:href="#DejaVuSans-111"/>
    <use x="1107.609375" xlink:href="#DejaVuSans-117"/>
    <use x="1170.988281" xlink:href="#DejaVuSans-110"/>
    <use x="1234.367188" xlink:href="#DejaVuSans-100"/>
    <use x="1297.84375" xlink:href="#DejaVuSans-44"/>
    <use x="1329.630859" xlink:href="#DejaVuSans-32"/>
    <use x="1361.417969" xlink:href="#DejaVuSans-32"/>
    <use x="1393.205078" xlink:href="#DejaVuSans-116"/>
    <use x="1432.414062" xlink:href="#DejaVuSans-111"/>
    <use x="1493.595703" xlink:href="#DejaVuSans-116"/>
    <use x="1532.804688" xlink:href="#DejaVuSans-97"/>
    <use x="1594.083984" xlink:href="#DejaVuSans-108"/>
    <use x="1621.867188" xlink:href="#DejaVuSans-61"/>
    <use x="1705.65625" xlink:href="#DejaVuSans-49"/>
    <use x="1769.279297" xlink:href="#DejaVuSans-53"/>
    <use x="1832.902344" xlink:href="#DejaVuSans-44"/>
    <use x="1864.689453" xlink:href="#DejaVuSans-48"/>
    <use x="1928.3125" xlink:href="#DejaVuSans-49"/>
    <use x="1991.935547" xlink:href="#DejaVuSans-49"/>
   </g>
  </g>
 </g>
 <defs>
  <clipPath id="pdac93aeff1">
   <rect height="321.84" width="167.4" x="72.62625" y="54.72"/>
  </clipPath>
 </defs>
</svg>
